<?xml version="1.0" encoding="UTF-8"?>
<!DOCTYPE svg PUBLIC "-//W3C//DTD SVG 1.1//EN" "http://www.w3.org/Graphics/SVG/1.1/DTD/svg11.dtd">
<!-- Creator: CorelDRAW X6 -->
<svg xmlns="http://www.w3.org/2000/svg" xml:space="preserve" width="210mm" height="297mm" version="1.1" style="shape-rendering:geometricPrecision; text-rendering:geometricPrecision; image-rendering:optimizeQuality; fill-rule:evenodd; clip-rule:evenodd"
viewBox="0 0 21000 29700"
 xmlns:xlink="http://www.w3.org/1999/xlink">
 <defs>
  <style type="text/css">
   <![CDATA[
    .fil0 {fill:#2B2A29}
    .fil2 {fill:#D6E9D8}
    .fil5 {fill:#FEFEFE}
    .fil8 {fill:#936135}
    .fil1 {fill:#A8E8E3}
    .fil9 {fill:#B8E0F3}
    .fil4 {fill:#DED2C8}
    .fil7 {fill:#E67095}
    .fil3 {fill:#E6E888}
    .fil6 {fill:#F9C6AA}
    .fil10 {fill:#63B771}
   ]]>
  </style>
 </defs>
 <g id="Capa_x0020_1">
  <metadata id="CorelCorpID_0Corel-Layer"/>
  <g id="_338998320">
   <path class="fil0" d="M9616 11543c11,43 15,-12 102,126 29,46 70,97 31,168 -55,100 -105,133 -226,44 -48,-36 -35,-43 -69,-48 -17,28 3,0 -18,14l21 15c8,6 10,8 17,16 15,16 16,19 35,32 2,1 4,2 5,3 2,1 4,2 5,3l10 7c44,28 113,44 163,26 51,-18 121,-134 94,-224 -13,-44 -51,-84 -70,-116 -16,-28 -15,-41 -70,-68 0,0 -21,-13 -32,0l2 2zm-102 -1179c69,-23 -14,-119 90,-282 21,-33 48,-22 44,-78 -26,-3 -15,-17 -66,57 -9,14 -10,22 -20,39 -27,48 -44,82 -44,155 0,111 -34,70 -4,109zm2591 -1685c246,0 156,8 310,-69 24,-12 32,-16 55,-28l98 -63c15,-10 11,-5 26,-17 55,-40 57,-29 63,-68 -48,-1 -37,6 -112,61 -13,9 -22,15 -35,24 -76,56 -182,115 -278,120 -79,4 5,22 -142,-2 -23,-4 -60,-20 -88,-31 -102,-38 -189,-120 -215,-126 -44,-10 -42,26 28,68 2,1 4,2 5,3 93,57 5,18 113,64 28,12 81,64 172,64zm-2897 -334c-15,-29 -25,-32 -42,-52 -24,-27 -23,-32 -58,-37l-13 27 40 33c92,73 0,93 25,153 22,-3 15,5 32,-18 19,-25 37,-68 16,-107l0 1zm-995 254c27,-45 18,-170 -45,-172 -18,35 17,74 21,119 -24,15 -19,10 -53,13l3 42 73 -2 1 0zm3909 -1611c68,-29 261,4 324,24 54,17 144,63 198,98 52,33 38,34 86,66 63,42 158,194 183,265 10,30 12,46 21,76 51,181 26,343 -65,505l-153 211 -179 89c-59,15 -22,10 -57,28l-229 41c-121,2 -66,3 -169,-14 -97,-17 -172,-44 -256,-101l-21 -14c-128,-81 -203,-187 -267,-324l-46 -230c-2,-108 0,-63 14,-137 33,-177 1,-63 77,-225l52 -75c93,-128 80,-78 119,-118 41,-42 78,-61 137,-92 129,-68 195,-58 231,-73zm-1 -42c-22,10 -12,2 -33,6 -78,13 -175,53 -251,90l-82 54c-69,60 -94,62 -170,169 -16,22 -18,38 -34,60 -38,53 -39,73 -62,134 -37,102 -18,64 -36,150 -13,63 0,138 8,186 38,221 65,198 142,331 60,103 90,94 149,138 28,21 11,27 45,48l125 61c25,9 52,22 71,28 128,46 250,32 374,20 132,-12 380,-149 460,-263 27,-39 52,-74 72,-115 24,-49 25,-15 64,-130 5,-14 17,-59 19,-73 11,-78 30,-138 19,-217 -7,-47 -4,-8 -13,-38 -7,-26 -7,-61 -14,-80 -9,-24 -20,-37 -29,-62 -11,-35 -10,-60 -25,-87l-32 -52c-32,-56 -37,-48 -58,-77 -35,-49 -11,-34 -71,-72 -24,-15 -33,-32 -53,-49l-40 -28c-88,-76 -245,-122 -360,-139 -43,-6 -152,-9 -186,6l1 1zm1235 1411c2,35 3,30 22,53 61,72 239,190 321,203 123,19 259,12 355,-74l74 -54c8,-6 50,-29 8,-45 -36,-13 -20,8 -65,38 -129,84 -127,97 -321,95 -48,0 -75,-8 -116,-26 -44,-19 -139,-87 -177,-129 -12,-13 -22,-27 -36,-40 -28,-26 -20,-23 -62,-20l-3 -1zm-1111 -1605c15,56 5,8 92,31 96,25 177,-4 294,70l88 57c9,6 12,7 21,13 38,26 29,35 63,56 82,51 51,80 114,67 0,-40 8,-24 -24,-47 -43,-30 -24,-20 -53,-49 -25,-25 -16,-12 -41,-28l-145 -108c-167,-89 -231,-53 -304,-70 -20,-5 -19,-8 -49,-9 -46,-2 -46,10 -55,16l-1 1zm-3564 3411c21,30 9,12 35,29 67,43 226,234 272,311l99 164c27,36 22,63 75,68 -3,-48 -30,-69 -68,-134 -62,-107 -97,-151 -157,-241 -11,-17 -22,-26 -32,-37 -23,-26 -34,-54 -60,-75 -19,-16 -26,-14 -42,-27 -41,-33 -68,-87 -107,-87l-17 29 2 0zm-986 746c0,132 -5,65 21,199 31,158 29,102 59,202 12,42 14,74 57,69l-76 -269c-44,-114 -7,-264 -8,-318 -1,-113 18,-32 18,-101 0,-31 -16,-58 -36,-34 -14,16 -19,142 -20,170 -1,56 -16,36 -16,84l1 -2zm753 1438c-105,-29 -147,-60 -228,-119 -33,-24 -37,-39 -61,2l112 84c43,31 85,50 137,66 41,13 126,32 164,25l-1 -32c-19,-13 -92,-18 -123,-26zm1294 171c39,-7 8,4 35,-33l53 -66c10,-15 16,-16 30,-29 88,-83 66,-34 193,-52 -5,-54 -60,-44 -109,-42 -45,1 -56,10 -101,52l-71 81c-24,39 -79,49 -30,89zm-951 -4050c-24,27 -30,12 -28,61 47,7 41,-6 61,-36 35,-51 53,-72 19,-131 -10,-17 -37,-110 -62,-59 -15,31 73,92 9,165l1 0zm36 3736c-53,-8 -23,-27 -98,-5 -90,26 -96,-13 -145,-31 -58,-21 -149,-85 -194,-129l-28 -30c-18,-14 -23,-17 -37,-32 -39,-41 -105,-99 -109,-158 55,0 37,10 80,26l177 42c82,12 202,-13 282,-35l115 -47c81,-39 89,-56 100,-62 24,-12 78,-17 73,15 -3,23 -10,12 -17,32l-15 94c-4,17 -5,32 -9,52 -14,65 -30,107 -69,151 -32,36 -77,77 -106,114l0 3zm-449 -1583c28,-15 262,-16 302,-6 103,25 138,55 207,97l92 70c23,22 9,20 31,45 61,68 39,27 92,136 57,117 76,269 44,400 -5,20 -2,8 -7,19l-14 36c-30,94 -106,224 -183,274 -56,36 6,16 -137,93 -66,35 -190,47 -267,47 -124,0 -54,1 -138,-12 -61,-10 -74,-6 -125,-30 -132,-61 -101,-65 -140,-97 -25,-21 -23,-5 -46,-31 -19,-23 -4,-18 -31,-45l-45 -57c-1,-2 -2,-4 -4,-5l-17 -25c-52,-82 -84,-210 -83,-308 0,-38 2,-36 9,-70 7,-32 -1,-71 18,-99 22,-32 18,-1 30,-43 27,-98 51,-92 78,-153 29,-64 17,-5 49,-63 19,-34 8,-17 27,-31 29,-21 51,-53 110,-85 42,-23 138,-53 146,-57l2 0zm249 -212l84 91c31,32 73,51 61,98 -28,0 -198,-68 -319,-37 -113,29 -137,17 -242,77 -76,44 -59,53 -110,86 -82,54 -44,92 -159,145 6,-33 -3,-10 12,-37 39,-7 18,-41 28,-83 10,-42 21,-12 44,-135l40 -146c62,-14 36,9 125,44 3,1 2,3 18,7 15,-6 66,-32 81,-46 6,-17 4,-25 10,-42 4,-10 15,-26 19,-37 11,-31 6,-51 25,-82 29,-1 65,-2 94,-1 61,2 21,8 68,30 22,10 46,15 66,27 28,17 25,31 54,42l1 -1zm-700 425c-14,10 -15,-17 -15,66l-42 263 9 152c18,53 18,139 76,230 9,14 18,32 28,48 12,18 19,19 32,35 6,8 52,70 56,79 49,100 57,62 105,151 22,40 24,23 51,58l31 36c80,105 69,70 138,141 27,28 25,16 47,28 38,22 -5,8 34,34 13,9 34,9 56,22 18,11 17,16 38,28 28,16 48,7 92,41 -24,64 -97,32 -146,10 -71,-30 -125,-33 -194,-75 -16,-10 -24,-13 -43,-25 -89,-54 -207,-215 -226,-230 -51,-42 -9,-56 -75,-53 -2,57 17,45 47,80l55 71c44,48 13,2 59,69 9,13 39,45 58,60 71,54 73,60 160,94 91,36 34,30 87,38 69,10 32,0 75,42 91,3 130,-22 153,71 22,89 5,46 51,120l15 37c16,48 96,144 123,207 56,134 109,167 172,260 77,113 68,136 100,179 22,29 82,148 79,179 -59,-22 -73,0 -178,-20 -19,-4 -37,-3 -57,-3 -133,1 -41,-11 -187,-16 -57,-2 -161,-32 -216,-48 -21,-6 -30,-3 -50,-8 -44,-11 -45,-28 -97,-40 -67,-16 -37,-28 -86,-41 -59,-16 -45,-14 -92,-42 -123,-74 -48,-26 -113,-82 -23,-20 -19,-8 -42,-27l-150 -163c-80,-99 -54,-70 -117,-163 0,0 -15,-18 -16,-19 -15,-14 14,1 -17,-12 -3,-13 -2,-12 -63,-12 -67,1 -106,8 -158,-10 -77,-27 -149,-26 -203,-136 -11,-23 -16,-31 -31,-52 -13,-19 -16,-32 -25,-59 -28,-77 -32,-116 -7,-215 12,-48 39,-73 69,-101 35,-32 91,-59 96,-77 -2,-51 -7,-25 -15,-62 -3,-12 -4,-24 -6,-37l-54 -311c-7,-34 -2,-46 -7,-80 -5,-44 -13,-8 -16,-68 -22,-393 28,-332 44,-449 3,-25 8,-47 18,-70 10,-25 18,-28 22,-59 13,-111 143,-343 223,-432l55 -72c1,-2 2,-4 3,-5 36,-54 51,-59 93,-101 14,-14 22,-24 36,-40 15,-17 6,-5 19,-24 38,-58 32,-24 68,-59 26,-26 11,-31 48,-32 28,34 18,100 17,150 -28,19 -34,21 -54,54 -45,72 -15,-23 -80,156l-64 175c-23,73 -47,246 -47,309 43,-6 11,13 29,-33 1,-2 1,-4 2,-7 1,-2 1,-4 2,-6 13,-43 5,-177 70,-336l83 -190c10,-18 29,-65 77,-80 38,32 26,24 26,83 -34,41 -37,27 -43,92l-67 221c-19,42 -33,61 -29,112l1 1zm-192 1874c16,16 0,7 26,14 5,1 30,2 38,3 1,6 2,26 3,30 6,24 35,60 49,78 43,57 53,79 106,131 68,67 134,140 209,196 1,1 4,2 5,3l93 59c57,32 167,74 237,96 34,11 83,28 124,36 47,9 94,13 138,22 166,32 239,9 302,27 82,23 152,-14 198,42 109,134 122,229 157,264 -2,33 8,57 30,77l-24 89 -1 238c3,16 5,32 9,53 7,42 52,176 101,210 136,95 256,-32 244,155 -3,46 -9,29 -13,68 -3,27 2,54 -3,81 -2,10 -9,47 -12,61 -9,39 1,-1 -9,26 -5,16 -5,13 -9,33 -8,36 -31,94 -36,129l46 0c17,-26 45,-144 51,-194 5,-44 2,-10 9,-33 4,-12 4,-4 7,-27 4,-31 -6,-70 5,-105 20,-67 12,-42 12,-132l127 0c5,21 6,42 12,65l45 133c22,43 15,60 22,88l33 77c16,45 -6,43 19,99 6,14 8,19 13,29l36 0c0,-77 -19,-57 -27,-103 -5,-29 3,-32 -7,-60 -6,-16 -15,-22 -20,-49 72,-45 39,26 228,-36 40,-13 55,-5 90,-14 20,-5 34,-23 56,-32 30,-12 54,-3 78,-16 24,-13 28,-33 52,-42 52,-18 41,3 82,10 2,40 5,61 14,96l26 94c14,52 -2,3 22,46 49,85 54,42 62,106l51 0c-4,-45 -2,-9 -10,-33 -1,-2 -2,-4 -2,-6 -1,-2 -1,-4 -2,-6l-29 -81c-1,-2 -2,-4 -2,-6l-25 -94c-17,-41 -16,-7 -27,-75 -10,-62 -29,-102 -50,-154l-5 -12c-18,-47 -24,-105 -35,-152l81 -37c2,-1 4,-2 6,-3l112 -49c111,-55 119,-80 211,-144 30,-21 11,-9 27,-32 13,-18 46,-51 54,-65 25,-44 -1,-42 50,-69 0,-67 9,-106 9,-178 0,-64 -8,-104 -35,-151 -18,-32 -17,-35 -48,-54 -2,-1 -4,-2 -5,-3l-30 -21c0,0 -18,-7 -18,-7l-152 -43c0,-54 0,-107 0,-161 0,-63 8,-100 8,-153 0,-8 -1,-27 0,-34 8,-50 27,-11 26,-101 -1,-62 10,-230 -1,-287 -6,-31 -20,-18 -25,-60l-17 -440c42,-10 85,-33 117,-61 44,-40 61,-83 85,-135l22 -71c1,-3 4,-10 5,-12 14,-37 11,-6 17,-50 2,-12 1,-37 1,-50 -1,-93 2,-120 -20,-200l-12 -38c-13,-45 -24,-53 -46,-90l-54 -73c-1,-1 -3,-3 -4,-5 -23,-33 -17,-23 -17,-76 0,-58 -7,-43 -15,-78 -6,-29 1,-60 -4,-89 -5,-31 -17,-33 -22,-62 -5,-26 -7,-60 -9,-84 -5,-59 -24,-52 -39,-147 -1,-9 -4,-27 -7,-36l-118 -330c-13,-38 -6,-43 -30,-71l-8 -9c-12,-17 -2,-1 -9,-17 -13,-27 -18,-35 -31,-62l-17 -42c-2,-5 -6,-14 -8,-18 -11,-28 -13,-45 -13,-80 0,-63 -3,-127 9,-178 27,7 97,72 110,94 39,64 106,104 146,167 10,17 5,12 22,29 12,12 18,17 30,30l103 108c37,50 110,107 132,147 27,51 93,96 130,141 1,1 3,3 4,5l16 18c36,46 97,88 127,136 1,2 2,4 3,6l10 16c13,17 4,3 12,13 11,14 2,-1 10,16l13 38c8,26 3,63 10,92l35 228c11,36 -1,64 11,99 12,36 8,44 12,90 5,69 3,82 20,141 7,22 4,21 5,46 2,42 6,55 8,102 2,66 14,26 17,84 3,51 12,53 17,93 4,32 5,69 7,94 2,16 0,34 2,49 8,60 5,-4 15,45 4,19 6,78 8,94 4,31 1,54 11,82l18 100c18,56 5,125 23,180l15 96c16,118 28,129 46,268l79 361c3,9 3,8 6,19 25,84 34,172 72,250 4,9 10,34 11,39l22 88c2,5 4,12 7,19 1,2 2,4 2,6l22 54c1,2 2,4 2,6 22,57 2,61 34,135l26 101c8,26 8,14 17,34 24,53 -9,26 40,121 14,28 11,50 20,81l24 53c7,21 3,5 5,29 8,75 65,92 49,158l-148 217c-5,7 -10,15 -10,15l-60 76c-34,24 -43,0 -43,67l76 0c7,-50 37,-45 51,-69 5,-9 5,-16 12,-30l20 -29c48,-68 106,-127 142,-206 11,-25 39,-39 56,-61l18 -26c33,-47 75,-90 104,-141 22,-39 0,-10 32,-43 22,-22 28,-45 54,-73l14 -19c1,-1 3,-3 4,-5 9,-12 12,-12 19,-24l12 -31c16,-34 35,-31 60,-101 15,-43 33,-61 60,-100l101 -145c15,-24 19,-23 37,-47l156 -216c4,-7 8,-11 11,-15l72 -97c15,-17 23,-29 35,-50 18,-29 12,-23 31,-44l102 -144c6,-9 6,-8 15,-20l340 -490c6,-9 6,-9 10,-16 5,-7 11,-16 17,-24l17 -25c12,-18 15,-26 30,-46 64,-83 179,-269 254,-372l29 -48c1,-2 2,-4 3,-5l140 -206c13,-17 60,-86 66,-104l-24 -28c-32,5 -46,21 -64,50 -7,12 -14,25 -22,37l-25 35c-25,37 -69,114 -102,137 -37,-15 -32,-38 -74,-63 13,-80 127,-218 156,-299l77 -151c19,-33 31,-31 37,-74 17,-115 49,-42 2,-131l-72 -123c-18,-30 -36,-41 -50,-75 0,-1 -6,-18 -7,-18 -14,-27 -28,-35 -39,-66 -9,-25 -5,-15 -19,-39l-108 -179c-1,-2 -3,-4 -4,-5l-41 -52c-12,-15 -24,-21 -43,-21 -2,43 8,36 29,77 0,1 8,17 8,17 12,22 2,3 14,20 49,66 99,161 144,237 31,53 76,113 102,168 7,14 8,26 17,44 42,84 57,67 -15,192l-227 442c-37,39 -19,36 18,81 74,89 87,47 -27,206 -34,47 -91,149 -123,183 -7,7 -15,13 -21,21 -9,11 -6,12 -14,23 -41,-49 -28,-77 -32,-139 -4,-53 -20,-97 -34,-146 -11,-40 -1,-71 -7,-114l-11 -104c-1,-34 -16,-63 -24,-94 -11,-42 -3,-64 -7,-109l-36 -205c-8,-39 2,-80 -6,-114 -8,-38 -7,6 -14,-45 -2,-16 0,-43 0,-60l-22 -213c-7,-38 3,-78 -4,-116 -7,-42 -13,-43 -12,-103 1,-51 -15,-56 -17,-101 51,-45 59,-43 121,-63 32,-10 26,-20 55,-35l128 -68c24,-13 39,-10 70,-31l109 -85c24,-23 86,-77 99,-97 26,-39 106,-139 118,-171 4,-10 7,-24 13,-36 45,-96 39,-62 70,-174 46,-7 22,-5 46,11l215 182c49,44 136,114 172,167l188 252c17,20 11,14 24,35l82 112c62,77 26,55 59,118 9,17 15,21 22,44 15,51 33,97 38,152 3,34 -2,27 8,59 15,51 22,181 -2,227 -37,69 -11,113 -40,207 -24,75 -49,146 -89,213 -40,66 -60,146 -104,209l-332 549c-4,6 -6,10 -9,16 -1,2 -5,8 -7,10l-142 197c-1,1 -3,3 -4,5l-67 94c-4,6 -6,8 -11,15 -1,2 -2,4 -3,5l-36 48c-12,15 -10,17 -21,34l-645 907c-10,13 -18,26 -28,40 -27,38 -48,76 -80,108 -31,32 -94,145 -129,183l-260 367c-19,35 -33,31 -54,64l-22 37c-16,25 -13,17 -30,38 -25,28 -24,48 -47,80 -28,39 -40,31 -63,64l178 0c-6,-53 -43,-30 -41,-85 1,-27 38,-52 81,-120 13,-20 0,-3 14,-20 12,-14 7,-5 17,-17l56 -79c21,-31 44,-42 61,-67 15,-21 4,-14 28,-41l45 -57c9,-13 5,-9 13,-22 17,-28 12,-15 30,-36 6,-7 23,-49 78,-118l29 -38c23,-23 10,-1 30,-38 40,-78 104,-111 147,-194 20,-37 59,-70 98,-129l44 -58c39,-44 52,-90 102,-101 15,105 10,43 30,147 19,99 13,131 19,165 9,51 17,98 32,147 19,61 1,101 22,167 15,48 3,45 21,107 7,25 3,20 7,45l35 149c14,63 2,22 26,59 18,27 7,46 10,81 2,25 3,18 7,37 3,14 6,29 9,42 7,26 17,47 21,74l70 0 -232 -1059c-24,-198 -88,-203 34,-339l91 -137c54,-101 35,-48 64,-89 13,-18 14,-35 26,-51 18,-24 17,-9 55,-72 16,-27 19,-45 48,-43 16,26 15,193 11,240 -3,35 -10,27 -12,68l0 255c-6,59 -13,11 -17,67 -3,40 2,41 -7,80 -15,67 -10,519 13,570l25 2c28,-44 3,-252 10,-322 5,-47 10,-13 15,-59l0 -585c1,-53 8,-33 14,-69l1 -329c3,-40 38,-80 66,-105 28,-26 75,-115 103,-144l68 -101c11,-21 19,-23 30,-45l7 -18c1,-2 2,-4 3,-6 1,-2 2,-4 3,-6l80 -132c24,-47 21,-65 61,-108 15,-16 24,-34 34,-50l6 -10c6,-12 3,-9 7,-18 12,-25 -10,-5 18,-26l14 35c8,25 4,14 8,41 4,25 4,25 8,45 15,66 18,37 34,140l62 259c13,67 21,126 43,194l222 835c9,37 21,41 30,78 27,117 24,70 39,126l56 155c7,11 3,3 11,13l55 139c5,23 0,21 7,43l45 116c21,37 9,-11 19,42 17,88 21,81 53,159 16,37 18,18 34,74l52 110c21,33 13,-14 22,38l75 0c-1,-55 -27,-70 -43,-118l-48 -121c-5,-13 -8,-15 -8,-17 -8,-17 -2,1 -9,-24 -8,-26 -3,-18 -15,-45l-198 -471c-14,-38 -12,-57 -33,-102 -5,-10 -5,-12 -10,-23l-173 -513c-1,-2 -1,-4 -2,-6 -15,-48 -27,-64 -33,-111 -6,-48 -5,-87 -22,-130 -1,-2 -4,-9 -5,-12 -1,-2 -2,-4 -3,-6 -1,-2 -2,-4 -3,-6l-15 -78c-10,-45 -37,-115 -48,-181 -2,-15 -1,-7 -4,-21l-31 -113c-1,-8 -5,-33 -8,-43 -10,-32 0,-1 -7,-18l-19 -40c-12,-35 -12,-86 -20,-124 0,-1 -5,-20 -5,-21l-47 -148c-12,-44 -7,-112 -18,-151 -10,-36 -30,-46 -14,-93l82 -155c1,-1 3,-3 4,-5 10,-14 3,-4 9,-16l22 -37c9,-13 2,-1 9,-16l79 -175c6,-24 1,-21 14,-45 39,-70 35,-7 52,-176l21 -139c8,-33 9,-2 14,-45 5,-45 8,-120 -5,-164l-34 -135c-8,-50 -13,-85 -35,-125l-23 -61c-22,-62 -67,-120 -108,-171 -6,-7 -8,-13 -14,-20 -34,-51 -57,-52 -100,-129 -29,-53 -65,-92 -67,-94l-77 -84c-1,-1 -3,-3 -4,-4 -24,-25 -32,-37 -55,-64 -1,-1 -11,-12 -12,-13l-225 -198c-12,-9 -15,-14 -27,-23l-45 -31c-2,-1 -4,-2 -5,-3 -21,-14 -52,-49 -38,-86 25,-67 37,-27 37,-142 137,0 106,-77 199,-97 45,-10 106,3 145,-8l12 -5c2,-1 4,-2 6,-3 2,-1 4,-2 6,-2 41,-16 50,-21 98,-21 0,-52 -9,-77 -34,-127l-40 -95c-1,-2 -2,-4 -3,-6 -1,-2 -2,-4 -3,-6 -1,-2 -2,-4 -3,-6 -1,-2 -2,-4 -2,-6l-10 -54c2,-26 349,-18 399,-30l0 -76c-16,-4 -23,-5 -37,-13l-44 -40c-1,-1 -3,-3 -4,-4l-99 -104c-21,-22 -43,-29 -67,-52l-115 -114c-36,-36 -20,-35 -23,-96 -2,-37 -12,-44 -8,-76 6,-51 -6,20 3,-14 5,-20 9,-20 23,-29l526 -296c2,-1 5,-1 7,-1l27 -7c58,-18 107,-3 126,-86l-226 -164c-21,-16 -22,-23 -46,-39l-77 -59c-19,-23 -34,-23 -54,-47 -25,-31 -51,-48 -72,-81 -15,-23 -24,-25 -39,-45 -14,-19 -2,-4 -13,-21l-53 -74c-1,-1 -3,-3 -4,-5l-10 -15c-26,-40 -42,-26 -42,-85 31,-8 22,-3 32,-28 14,-36 -11,-9 21,-47 12,-14 21,-22 31,-36l102 -160c32,-56 83,-91 130,-132 37,-32 93,-59 136,-84l75 -44c12,-10 18,-19 30,-30 8,-8 10,-9 18,-16 1,-1 3,-3 5,-4l84 -77c38,-32 102,-60 106,-90 5,-36 -21,-65 -52,-73 -16,-4 -45,-1 -65,-3 -20,-2 -106,-5 -126,-10l-51 -16c-13,-3 -12,-2 -27,-7 -28,-9 -8,-4 -24,-10 -45,-16 -55,-13 -99,-37l-394 -258c-54,-35 -10,-74 13,-139l119 -262c17,-42 33,-40 42,-85 10,-48 11,-30 31,-62 26,-43 43,-112 48,-121 12,-23 16,-7 28,-40 7,-18 4,-38 12,-56 10,-24 16,-13 27,-41l130 -268c8,-11 6,-7 15,-19l155 -209c98,-107 -78,-83 -135,-50 -2,1 -4,2 -5,3l-62 23c-2,1 -4,2 -6,3l-196 58c-23,3 -38,2 -59,8 -44,13 -118,11 -171,23 -34,8 -1,11 -53,14 -23,1 -43,-3 -66,2l-112 15c-18,1 -105,7 -125,11 -24,5 -19,9 -53,14 -130,20 -62,14 -134,38 -41,14 -32,-5 -29,-38 9,-101 15,-82 19,-118 6,-56 0,-122 17,-178 22,-70 -1,-167 23,-240 13,-38 4,-76 12,-123 10,-58 16,-21 16,-120 0,-90 9,-247 0,-330l-28 -108c-17,-51 -44,-207 -67,-264l-98 -207c-14,-34 -20,-37 -20,-82 -32,-8 -34,-8 -76,-8l-123 250c-7,17 -17,35 -26,50 -15,24 -18,22 -28,49l-36 74c-7,8 -9,7 -16,18 -13,19 -1,-1 -11,23 -14,34 -86,112 -115,156 -6,10 -6,8 -14,19l-145 194c-24,27 -11,21 -30,46 -9,13 -26,27 -38,39 -42,42 -118,109 -150,155 -32,46 -77,78 -106,114 -20,25 -12,17 -39,37 -45,35 -68,80 -114,115 -28,22 -17,11 -34,42 -20,-15 -9,-9 -21,-21l-107 -121c-10,-12 3,2 -12,-13 -10,-10 -18,-14 -27,-24 -19,-21 -9,-13 -20,-31 -20,-33 -19,-17 -45,-48l-71 -82c-31,-35 -48,-81 -87,-108l-137 -117c-18,-15 -33,-34 -51,-51 -21,-20 -40,-26 -59,-43l-367 -335c-26,-15 -29,-30 -52,-49 -28,-23 -29,-11 -60,-42 -9,-9 -15,-18 -25,-26 -24,-19 -11,-6 -32,-19 -36,-22 -29,-40 -77,-67 -25,-14 -31,-33 -55,-46l-54 -48c-11,-9 -20,-11 -33,-18 -36,-20 -33,-40 -67,-60 -143,-85 -68,-121 -260,-121 20,30 16,45 29,81 14,37 12,68 13,106l12 56c1,2 2,4 2,6 11,41 1,86 16,136 12,38 10,15 13,64 3,54 28,72 39,113 9,31 -2,34 11,66l21 72c1,2 1,4 2,7l43 152c14,42 9,98 23,146l29 123c8,45 4,98 11,141 11,61 16,5 16,137 0,80 14,224 -10,295 -4,11 -5,7 -7,27 -1,13 0,28 -1,41l-41 187c-7,50 -12,84 -34,127 -142,0 -266,9 -415,8 -56,0 -50,4 -86,15 -65,21 -506,16 -569,-3 -68,-20 -73,-8 -149,-12 -38,-2 -120,-34 -169,-42 -58,-9 -50,-37 -135,-25 -30,4 -10,5 -43,17 3,42 29,59 46,98l184 316c19,34 19,16 43,68 22,48 61,85 81,130l31 45c11,11 6,5 15,19 3,4 6,14 12,22l173 242c1,2 2,4 3,5l55 72c1,2 2,4 3,5 1,2 2,4 3,5l140 199c11,18 11,24 24,44 1,2 6,7 7,10l36 57c72,112 37,92 -44,152l-148 81c-22,9 -94,18 -155,40 -10,3 -6,3 -26,8l-196 33c-8,0 -17,0 -25,1 -20,2 -16,3 -27,7l-101 9c-52,3 -48,15 -101,18 -125,6 -111,16 -146,23 -44,9 -41,-2 -144,25l-60 24c-2,1 -9,4 -12,5l-50 26c-2,1 -8,5 -11,6l-94 58 0 59c48,1 48,16 86,33l56 20c41,21 59,47 110,68 51,21 29,26 86,41 26,7 36,20 61,32l24 10c22,12 8,7 31,28l51 34c47,29 87,73 137,100 41,22 32,29 106,72l525 262c2,1 4,2 6,3 7,3 -5,5 25,9 -9,32 2,0 -11,23 -1,2 -5,8 -6,11 -1,2 -2,4 -3,5 -40,68 -114,164 -169,220 -1,1 -3,3 -4,4 -1,1 -3,3 -4,4l-64 63 -288 -220c-1,-1 -3,-3 -5,-4l-65 -45c-60,-44 -125,-85 -178,-135 -25,-24 -35,-16 -57,-36l-127 -102c-30,-19 -25,-27 -46,-47 -25,-24 -36,-10 -61,-32 -26,-23 -2,-14 -45,-40 -12,-7 -13,-8 -25,-17l-148 -106c-10,-8 -7,-6 -13,-12l-173 -148c-20,-16 -31,-21 -50,-35 -1,-1 -3,-3 -5,-4l-148 -122c-2,-2 -7,-7 -8,-8 -10,-9 -5,-4 -15,-10l-97 -72c-55,-35 -117,-91 -119,-93 -13,-12 1,-2 -15,-11l-55 -38c-29,-27 -62,-61 -92,-86 -22,-19 -31,-16 -50,-35l-35 -33c-2,-1 -4,-2 -5,-3 -13,-8 3,1 -11,-6 -22,-12 -6,-4 -29,-13 -36,-14 -8,3 -33,-18l-23 -20c-48,-35 -103,-63 -143,-102l-46 -30c-49,-28 -100,-68 -138,-108l-39 -29c-61,-47 -130,-85 -186,-135l-55 -30c-2,-1 -4,-2 -5,-3 -2,-1 -4,-2 -5,-3l-124 -88c-39,-18 -50,-45 -80,-64 -21,-14 -36,-10 -62,-31 -29,-24 -6,-18 -45,-40l-118 -68c-25,-9 -5,2 -30,-13 -34,-20 -46,-38 -81,-54 -18,-8 -10,-3 -26,-16l-19 -15c-94,-66 -23,-7 -134,-69l-61 -24c-56,-22 -96,-63 -150,-87l-23 -10c-31,-19 -85,-50 -120,-58 -61,-14 -281,-22 -338,4 -36,16 -13,20 -65,29 -34,6 -44,2 -72,21l-122 90c-1,1 -3,3 -4,5 -7,8 -19,15 -28,22 -23,19 -43,85 -51,126 -2,11 -4,24 -8,35l-8 18c-14,42 14,56 5,88l-11 84c1,64 -2,30 21,64 19,28 20,50 36,74 21,28 48,58 60,109 18,72 77,155 86,185 16,51 64,98 85,160l39 80c14,41 18,25 35,58 20,37 33,85 60,118l61 100c13,15 4,3 13,12 17,17 9,3 18,25l8 26c1,2 2,4 3,6l109 171c6,16 5,23 9,34 10,30 33,50 50,86 4,8 2,4 6,11l33 51c1,1 3,3 4,5l225 342c27,32 28,24 42,51l37 56c5,10 3,8 8,17l88 132c43,54 32,27 68,101l35 50c26,44 18,20 51,42 35,24 39,80 116,113 11,5 15,7 32,11 79,18 189,2 266,-4l30 37c42,42 -35,-33 9,8 7,6 16,15 23,19l31 19c79,45 60,115 80,183l22 113c2,16 1,23 4,39 5,33 5,52 5,88 -44,5 -9,2 -32,10l-106 72c-69,54 -9,-17 -128,100l-150 121c-24,23 -41,20 -64,46l-59 51c-8,6 -15,13 -22,20 -15,15 -23,24 -38,38 -15,15 -23,23 -38,38l-33 43c-22,35 -13,14 -39,37 -26,24 -14,24 -32,52 -1,2 -2,4 -3,5l-139 259c-24,41 -28,78 -53,117l-119 287c-6,27 1,41 -7,69 -8,27 -11,5 -13,55 -3,104 -7,564 6,604 15,44 7,154 26,203l7 18c21,55 0,79 44,134l45 82c19,35 31,45 44,83l30 46c25,46 15,45 56,96l111 152c21,31 22,15 37,39l71 123c17,44 0,104 -4,140 -4,50 8,86 8,143 47,12 27,33 49,78l59 76c62,72 39,49 117,86 27,13 21,15 46,22 -23,35 -58,64 -91,87l-39 37c-25,26 -28,18 -54,39 -17,14 -26,29 -43,42 -29,24 -22,6 -50,35 -2,2 -6,7 -8,9 -38,41 -15,4 -91,78l-37 39c-29,31 -21,13 -50,35 -17,13 -27,29 -43,42 -28,23 -27,9 -56,38 -27,27 -53,65 -82,87l-360 334c-21,25 -41,33 -65,53l-64 63c-74,77 -155,141 -231,217 -36,36 -56,57 -99,78 0,114 -11,77 -72,131l-86 84c-12,16 -4,6 -11,14 -1,1 -3,3 -4,4l-377 377c-31,30 -45,27 -74,62l-148 148c-5,5 -11,9 -18,16l-39 37c-20,16 4,-15 -18,16l75 0c30,-40 63,-71 94,-103 84,-85 79,-75 172,-141 10,-7 14,-8 16,-10 10,-7 163,-181 219,-228 83,-69 238,-268 312,-286 71,81 26,48 93,133l46 73c8,11 2,2 11,13l14 20c29,44 42,47 81,88 66,71 63,57 143,95 35,16 42,26 80,38 46,143 -16,119 -97,196 -30,29 -85,84 -102,112l62 0 88 -90c15,-12 26,-18 38,-30l12 -13c74,-81 102,-58 107,-113l71 22c33,14 70,66 125,-3l213 -227c13,-9 3,-2 17,-9 25,-12 2,5 29,-14l69 -75c31,-29 17,-26 38,-55 20,-27 174,-167 210,-214 8,-10 2,-31 52,-35 89,-7 6,83 -4,117 -4,13 -3,15 -12,31 -40,69 -8,51 -23,104l-5 12c-1,2 -2,4 -3,5 -51,91 -8,-1 -46,107 -3,7 -4,12 -6,19 -4,12 -8,22 -12,31 -1,2 -4,9 -5,12l-195 364c-14,24 -16,33 -30,55l61 0c4,-33 11,-29 27,-57l62 -107c64,-100 115,-208 157,-319l165 -474c-12,-32 -13,-2 -23,-42l155 -151c22,-20 31,-31 29,-67 -47,-4 -50,13 -68,45 -18,32 -425,418 -465,475 -27,39 -265,270 -318,325 -33,34 -98,89 -120,125 -55,-29 -125,-52 -183,-77 -70,-31 -152,-66 -220,-110 -26,-17 -19,-11 -38,-30 -36,-35 -66,-64 -95,-108 -7,-11 -7,-13 -12,-21l-111 -186c-18,-28 -35,-69 -26,-93 17,-44 106,-99 137,-134 72,-81 69,-61 105,-90 12,-9 22,-24 33,-35l143 -127c29,-25 34,-41 65,-62l216 -191c25,-25 41,-45 66,-61 33,-21 45,-39 73,-63 18,-16 19,-24 32,-35 28,-25 24,1 109,-94 61,-68 34,-13 137,-125 20,-22 80,-60 143,-128 52,-56 39,-27 71,-55 22,-20 49,-50 67,-69 52,-56 113,-71 194,-81l-6 -2zm1684 953c-17,-44 -29,-92 -60,-141 -14,-22 -20,-23 -31,-38l-85 -178c-20,-82 -55,-106 -89,-172l-76 -128c-9,-14 -1,2 -14,-21 -1,-2 -7,-17 -10,-23 -19,-35 -31,-32 -53,-74 -33,-65 -78,-108 -134,-205 -66,-115 -77,-97 -120,-210 -10,-27 -53,-182 -49,-212 68,-19 75,-29 122,4 2,1 4,3 5,4l25 17c16,15 10,24 30,46l58 62c44,54 -1,-28 59,68 1,2 2,4 3,5 1,2 2,4 3,5 5,7 6,10 10,16 44,62 71,88 114,174 29,58 30,36 61,115 17,43 21,27 40,73l252 382c9,20 8,29 21,54 43,82 96,152 109,180 13,28 33,72 63,81 15,-30 17,-125 30,-168 6,-22 13,-151 4,-173 -39,28 -27,47 -26,102 1,56 -2,57 -12,71l-21 19c-65,-2 -51,-43 -51,-100 0,-108 -5,-77 31,-130 19,-28 14,-164 146,-170 95,-4 122,85 169,147 30,40 39,58 56,105 19,51 27,96 54,106 21,-27 7,-49 -7,-78 -18,-36 -23,-138 6,-185 27,-44 18,-37 36,-84 49,-60 40,-94 135,-94 76,0 118,42 152,85l42 74c8,12 11,27 19,41l14 20c1,1 3,3 4,5l79 115c18,27 1,22 19,44l25 0 34 -164c38,-224 26,-110 27,-382 0,-36 3,-64 -6,-96 -13,-46 -2,-62 -11,-98 -12,-48 -11,18 -23,-84 -5,-42 -2,-7 -10,-39 -24,-98 -4,-82 -45,-216l-27 -72 -3 -309c2,-27 6,-11 38,-61 22,-33 32,-27 60,-42 63,34 51,46 65,72l83 128c55,80 78,180 86,275 4,49 24,68 25,127 1,41 -5,105 0,143 3,27 22,44 14,128 -6,59 -15,0 -14,118 1,161 -13,298 -13,423 0,101 -13,169 -13,271 0,46 5,97 -4,142 -8,44 -14,87 -3,132l31 0c12,-76 -32,-223 121,-168 26,9 36,9 59,25 21,15 22,21 47,37 73,49 50,43 52,222 1,87 -10,81 -48,139l-187 177c-27,25 -19,18 -55,30 -37,13 -27,16 -58,34 -64,36 -188,62 -206,118 -15,47 -3,13 1,33 8,35 5,45 18,78 14,37 16,32 10,83l-390 136c-52,3 -124,1 -177,-1 -6,-42 -1,-29 -15,-61 -16,-38 -44,-144 -45,-182 -31,-3 -51,-1 -80,-7 -46,-9 -8,-1 -57,5 -43,5 -68,-11 -161,-11 -172,0 -208,-139 -243,-277 -31,-124 22,-293 17,-326 -4,-30 -36,-97 -54,-120l2 4zm662 -676c-72,63 -49,120 -102,137 -50,-31 -54,-171 -257,-165 -23,38 -27,33 -56,61 -13,13 -49,52 -55,62 -19,32 -39,125 -81,165l-8 -10c-24,-34 -30,-64 -62,-97 -40,-42 -14,-31 -37,-56 -33,-37 -24,7 -30,-65 -44,-20 -22,3 -42,-41 -15,-34 -16,-18 -24,-45 -42,-136 -51,-103 -84,-118l-2 -59c-38,-10 -25,-14 -49,-51l-26 -51c-11,-27 -41,-56 -68,-111 -61,-126 -79,-115 -124,-186 -20,-32 -9,3 -20,-32 8,-8 16,-18 25,-26 10,-10 5,-4 13,-13l65 -79c36,-40 55,-91 70,-149l60 -274c7,-39 14,-37 13,-59 -2,-42 1,-12 -9,-27 -9,3 -24,-14 -39,63l-9 51c-28,91 -29,194 -72,284 -2,5 -13,24 -17,33 -17,36 -1,8 -22,37 -35,48 -61,77 -103,110l-63 -49c-1,-1 -3,-3 -5,-4 50,-12 58,-52 85,-84 59,-70 91,-135 113,-225 7,-31 1,-50 5,-79 7,-51 14,-5 16,-67 7,-158 -30,-97 38,-219 44,-78 51,-92 67,-189 3,-17 2,-20 6,-36 35,-138 -12,-325 -87,-445 -34,-54 -103,-139 -161,-178 -2,-1 -4,-2 -5,-3l-19 -15c-72,-55 -98,-132 -137,-159 -68,-47 -64,-77 -107,-106 -14,-9 -17,-9 -35,-15 -6,-68 -152,-103 -208,-131 -37,-18 -49,-21 -95,-4 -3,-132 16,-108 137,-82 35,8 29,1 60,18l236 135c32,6 22,-1 29,-5 -21,-34 -9,-10 -41,-33l-105 -64c-108,-65 -187,-92 -317,-106 -1,-59 -29,-134 -13,-186 9,-29 300,-139 316,-146 114,-50 228,-87 352,-112 35,-7 182,-6 225,-3l477 105c37,14 62,11 92,28l-99 242c-11,31 -18,61 -25,93 -6,26 -12,62 -21,87l-58 173c-3,10 -22,81 -22,86 47,4 35,-23 44,-59 7,-28 19,-59 30,-87l15 -43c30,-97 59,-245 98,-318 16,-31 21,-55 31,-88 15,-46 26,-43 44,-72l119 -10c9,37 22,68 25,108 -70,16 -123,142 -149,207 -18,45 -52,93 -64,139l-7 27c-1,3 -4,10 -5,12 -34,88 -61,233 -110,304 -2,3 -19,30 -20,31 -15,25 -4,3 -16,36l-40 102c-1,2 -1,4 -2,7l-11 46c-5,31 -12,55 -12,92 -1,91 30,263 83,332l41 60c47,74 129,117 183,182l50 52c10,13 14,30 19,39 27,41 159,165 215,199 43,26 30,40 97,83l74 53c22,14 36,36 71,17 -15,-25 -38,-23 -65,-42l-40 -34c-14,-12 -7,1 -12,-11 42,-29 36,-4 88,-1 44,3 83,-3 128,3l0 185c-202,18 -215,-40 -375,-200 -30,-30 -14,-31 -48,-16 7,35 139,149 167,177l95 59c51,23 117,8 176,16 0,78 40,129 54,204l39 212c4,38 13,46 15,85 1,24 -2,24 4,47l10 139c-42,23 -74,57 -106,93 -22,25 -83,84 -110,100 -15,-27 -41,-39 -65,-60 -26,-23 -9,-11 -47,-22 -79,-22 -215,-13 -194,102l4 2zm237 -535c21,-44 -34,-97 -45,-123l-38 -83c-19,-42 -1,-7 -26,-33 -17,-19 -30,-49 -48,-70 -49,-58 -81,-66 -182,-59 -17,1 -90,14 -103,20l-159 137c-63,42 -81,74 -120,125 -27,35 -26,24 -49,68 -1,2 -5,9 -6,11 -62,109 -50,112 -92,189l-36 85c-5,32 25,68 47,3 13,-38 19,-52 34,-85 68,-147 68,-187 181,-293 72,-67 110,-112 189,-175 59,-48 208,-80 264,1l41 60c1,1 3,3 4,5 25,35 27,58 51,93 52,74 44,113 94,126l-1 -2zm2921 -5458c31,-11 11,7 29,-26l63 -115c63,-133 162,-151 287,-172 29,-5 76,-8 102,-13 38,-8 -1,-4 46,-14 42,-9 25,15 41,-19 -7,-20 9,-25 -42,-21 -42,3 -9,7 -53,13 -309,39 -319,46 -469,293 -18,30 -41,51 -5,75l1 -1zm-2684 6202c-38,-9 -36,-25 -39,-29 -11,-16 4,7 -6,-11l-65 -104c-1,-2 -2,-4 -3,-6 -9,-23 -5,-45 -5,-71 28,-19 62,-41 87,-66 8,-8 32,-35 38,-37 49,-21 36,75 36,128 0,33 -8,0 -15,44l-27 151 -1 1zm351 -1046c-4,-25 -6,-62 -3,-88 4,-32 17,-34 22,-69 20,-141 20,-52 44,-152 17,-70 6,-103 16,-167 7,-43 13,-126 26,-165 17,5 -1,-13 25,29 36,58 76,163 69,228 -7,62 -10,2 -12,120l-16 99c-5,20 -50,127 -88,148l-29 14c-36,19 -10,16 -54,4l0 -1zm-266 -478l-98 55c-64,37 -36,40 -65,90 -118,14 -140,-13 -183,-6 -72,11 -53,4 -117,-24 -62,-28 -20,-5 -63,-40 -21,-17 -9,-1 -28,-22l-107 -96c-30,-20 -37,-18 -38,-68 97,0 173,48 328,17 36,-7 78,-12 108,-22l83 -34c108,-54 179,-155 212,-166 35,44 -24,197 -30,219 -6,25 -2,71 -3,99l1 -2zm-1067 -643c-23,-93 27,-319 108,-407 105,-115 -12,-29 195,-178 23,-16 70,-30 101,-43 63,-27 28,-21 129,-20 58,0 87,-19 133,-11l222 75c27,18 63,44 89,63 66,51 167,177 174,267 3,39 13,53 29,89l9 24c5,23 7,118 -1,137 -12,29 -13,-6 -31,44 -10,28 -2,40 -6,70 -3,24 -9,26 -24,43 -34,38 -7,12 -22,55 -11,31 -16,17 -31,44 -51,93 -53,94 -137,160 -50,39 2,2 -85,35 -2,1 -4,2 -6,2l-68 26c-31,6 -38,-4 -66,10 -37,19 4,18 -51,21 -137,7 -65,25 -201,-2 -98,-20 -264,-111 -318,-196l-13 -21c-7,-9 -14,-16 -20,-22 -47,-46 -84,-140 -94,-206 -2,-11 -1,-20 -3,-31 -6,-34 -5,-5 -11,-28l-1 0zm4067 1549l-47 67c-1,1 -3,3 -4,5l-7 10c-22,31 -38,52 -57,78 -26,37 -77,128 -108,163l-167 240c-20,30 -36,52 -54,80l-65 98c-1,2 -2,4 -3,5l-319 459c-23,25 -10,10 -27,40 -18,33 -12,33 -46,35 0,-71 -75,-418 -92,-520l-56 -346c-7,-96 -9,-33 -16,-85 -4,-32 3,-65 -3,-99 -46,-254 -23,-392 -47,-571l-13 -65c-19,-55 4,-400 -7,-526 -9,-106 -12,-55 -12,-195 0,-68 0,-135 0,-203 0,-121 -11,-300 3,-413 45,-1 40,2 77,13l153 34c22,6 63,13 78,16 174,34 352,-18 437,-24 55,-4 206,-64 197,34 -3,36 -19,31 -8,83 3,16 18,47 21,71 14,125 -15,137 11,280 6,32 -1,62 3,91 4,35 31,54 30,153l21 164c6,31 -1,57 6,87 8,31 6,-7 12,38 2,16 0,33 1,50l26 161c3,45 7,54 12,85 17,122 4,74 29,172 10,41 18,181 41,234l0 1zm-3916 -2115c4,-12 6,-24 10,-34 31,-84 36,-117 67,-187 6,-13 5,-14 13,-29 11,-23 19,-39 26,-58 14,-43 63,-129 96,-154 36,8 30,35 93,41 104,9 91,-16 119,-29 30,15 29,13 51,35 54,52 52,62 101,120 4,4 6,5 12,14 1,1 8,14 9,16 13,22 46,50 74,106 37,73 -55,47 -103,41 -50,-6 -23,-11 -68,-15 -114,-10 -270,25 -368,80 -91,51 -38,64 -132,56l0 -3zm-2415 820l0 169c0,35 13,36 13,161 0,274 7,116 50,285l34 139c-8,34 -11,-7 -56,39 -18,18 -29,35 -56,45 -40,-27 -27,-28 -59,-77 -9,-13 -17,-26 -27,-39l-193 -281c-9,-15 -11,-28 -23,-46 -41,-64 -91,-151 -110,-225 -4,-14 -7,-36 -13,-57l-12 -325c0,-61 -13,-72 -14,-126 -1,-45 0,-91 1,-136 0,-49 -16,-89 -13,-117 5,-37 9,-7 12,-52 10,-128 -22,-19 30,-142 1,-2 2,-4 2,-6l28 -65c1,-2 1,-4 2,-6l62 -141c67,-123 -21,-26 74,-153l76 -104c15,-41 16,-61 46,-89 50,-47 18,-39 47,-88 18,-31 87,-139 112,-158 30,-23 22,-5 78,-58 29,-28 48,-77 97,-108 20,-13 20,-6 38,-28l31 -38c19,-16 14,-5 36,-30l161 -112c35,-17 26,-50 90,-53 10,78 8,34 28,89l43 318c4,39 15,59 15,101 0,172 45,132 25,331 -22,12 -19,5 -40,13 -15,6 -1,0 -17,8l-16 10c-50,31 -5,11 -67,60l-60 50c-31,22 -6,-2 -25,34l-81 88c-41,29 -7,24 -64,82 -25,25 -18,27 -32,49 -1,2 -2,4 -3,5 -1,2 -6,8 -7,10l-11 23c-35,89 -36,39 -57,115l-86 259c-20,34 -89,361 -89,380l0 -3zm2892 -1362c24,8 84,58 104,78 12,12 31,31 44,49 19,27 13,32 35,58 26,31 59,77 77,109 23,39 48,115 67,126 43,-17 11,-21 42,-42 27,13 20,8 34,33l96 151c7,14 4,10 10,24 6,14 17,33 23,46l34 91c15,31 20,19 30,57 7,25 2,41 9,59 11,27 31,11 60,153l101 523c5,41 -17,265 -31,316 -7,28 -8,24 -14,63 -14,88 -27,93 -43,160 -2,9 -10,50 -14,63 -28,-7 -9,4 -22,-23 -20,-40 12,-21 -41,-101 -55,-84 41,-89 31,-183 -5,-49 6,-22 -18,-34 -32,23 2,50 -19,82 -14,22 12,8 -73,13 -1,-43 29,-141 50,-185l28 -51c1,-1 7,-24 7,-25 10,-41 34,-96 23,-146 -8,-40 9,-13 -17,-28 -22,30 -6,148 -50,207 -18,24 -7,-5 -23,35 -32,76 0,118 -83,112l46 -226c27,-99 39,-132 41,-236 1,-36 7,-42 18,-68 43,-104 59,-331 -5,-451 -13,-23 -3,-3 -13,-30 -14,-41 -17,-41 -42,-76l-7 -10c-51,-73 -74,-88 -84,-103l-79 -81c-30,-20 -15,2 -31,-37 -15,-37 -33,-47 -59,-100 -47,-96 -100,-130 -170,-228 -44,-61 -75,-57 -87,-84 -12,-26 4,-43 14,-60l1 0zm15 -389c14,4 71,50 81,60 61,62 48,36 77,76 17,24 16,18 37,39l100 128c42,44 22,54 47,98 21,36 15,4 27,47l5 21c8,30 19,61 14,101 -4,39 -11,32 6,66 17,34 10,0 16,58 4,36 13,34 0,56 -11,-1 -12,4 -35,-26 -8,-11 -24,-33 -31,-44l-143 -163c-32,-22 -12,-1 -43,-34 -23,-25 -28,-19 -43,-34l-64 -78c-42,-64 -28,-23 -37,-118 -6,-63 -13,-2 -17,-60 -4,-59 8,-14 17,-60 13,-66 -23,-45 -14,-131l0 -2zm-1959 -273c2,-2 6,-6 7,-4 1,1 30,-12 33,-30l0 -99c17,6 5,-3 16,13 21,30 12,70 36,101 10,14 0,-2 8,8 25,30 13,45 32,86 13,28 43,67 65,87l14 12c68,50 100,74 207,74 72,0 80,-9 145,-42 50,-25 74,-48 94,-103 10,-29 11,-31 40,-46 45,18 10,21 60,36 20,6 20,3 40,10 104,36 92,37 194,-12 38,-18 29,-9 47,-47 31,-65 53,-42 57,-146 3,-86 61,-89 127,-66l76 33c1,0 24,16 29,20 26,20 6,10 38,18 57,14 49,17 101,1 12,18 27,41 38,58l29 47c19,36 3,27 19,57 31,58 35,77 52,141 18,66 46,137 48,208 2,66 15,35 17,86 -120,-21 -66,23 -179,-36 -50,-26 -45,-6 -85,-25 -93,-43 -184,-58 -287,-58 -59,0 -61,-11 -110,-14 -34,-2 -103,15 -221,14l-382 82c-55,29 -99,36 -177,60 -81,26 -19,-10 -72,46l-102 1c-5,-28 -3,-46 -3,-73l-34 -205c-11,-52 -2,-91 -10,-140 -16,-90 -12,-48 -11,-154l4 1zm6438 -262c31,13 130,123 156,149l121 107c8,8 10,7 18,16 15,16 9,6 18,24l-11 33 -366 3c-4,57 28,109 50,156l57 166c-25,9 -23,14 -51,18 -24,3 -52,-2 -75,2 -40,6 -20,26 -58,12 -38,-14 -14,-54 -4,-77l25 -92c1,-16 -13,-115 -17,-133 -38,-148 -69,-75 31,-186 77,-86 55,-124 106,-198zm-3588 237c-4,-18 -1,-125 -1,-152 -1,-93 -3,-62 32,-128 28,-52 18,-66 57,-105 31,-30 42,-53 86,-75 5,-3 20,-10 23,-12 7,-4 52,-54 63,5 4,22 -2,50 3,74l105 529c13,58 93,248 2,221 -9,-3 -43,-17 -62,-24 -37,-14 -65,-35 -109,-53 -32,-14 -68,-43 -89,-72l-60 -100c-14,-30 -42,-79 -49,-110l-1 2zm-264 42l-12 5c-2,1 -9,4 -11,5 -19,12 -8,-7 -15,15 -15,86 1,120 -31,203 -21,55 -5,53 -43,116 -1,2 -5,9 -7,11l-55 81c-15,24 -25,28 -27,56 43,34 128,22 160,32 85,26 196,7 287,8 55,0 54,11 93,14 50,3 221,-55 237,32 0,17 -2,42 1,58 8,46 6,-4 15,44 29,151 -42,222 -53,333 120,65 156,-25 208,-7 10,29 4,23 7,54l35 149c26,104 73,119 166,147 55,17 78,46 151,34 40,-6 51,3 96,-17 41,-19 40,-34 98,-34l69 72c18,15 100,46 147,81 27,20 55,15 74,37 27,32 24,133 14,171 -7,25 -1,-7 -9,24l-14 557c3,35 9,30 11,67 4,66 -9,158 10,219 8,26 7,36 6,69 -1,69 15,74 15,135 0,42 -5,114 1,153 3,23 11,37 12,68 1,24 0,52 -1,77 0,25 -2,49 3,73 6,28 9,20 10,62 0,24 -2,53 0,77 3,43 8,28 12,68 5,53 -9,122 7,171l5 12c18,52 15,101 18,156 3,44 9,31 13,68l15 135c7,40 18,96 26,130 6,26 0,44 7,70 5,21 16,31 19,56 11,72 -4,52 18,134 21,79 30,174 41,254l12 41c19,45 21,87 6,113l-51 68c-22,27 -37,63 -58,94 -12,17 -17,23 -32,45 -15,24 -14,28 -31,45l-123 180c-22,28 -41,71 -70,87l-212 -581c-11,-37 -22,-62 -33,-92 -14,-39 -16,-73 -26,-109 -16,-58 -11,15 -28,-100l-12 -37c-20,-48 -19,-71 -28,-116 -12,-57 -36,-42 -42,-163 -2,-36 -15,-68 -29,-96 -19,-37 -7,-77 -16,-120 -16,-76 -55,-130 -21,-217 28,9 35,26 48,55 12,26 23,51 35,76 34,70 78,133 107,207 14,35 27,33 44,62l197 373c1,2 2,4 3,6l74 146c9,15 11,14 21,37 13,27 16,56 33,77 11,14 39,41 61,42 12,-67 -52,-119 -75,-172 -9,-21 -19,-46 -29,-64l-55 -114c-6,-20 -22,-29 -47,-80 -33,-69 -78,-127 -110,-195l-212 -397c-20,-36 -47,-74 -64,-114 -26,-61 16,-75 33,-122 19,-52 37,-75 57,-122l61 -109c19,-40 98,-187 130,-225 62,-74 12,-28 45,-81 27,-43 40,-22 -58,-152l-122 -166c-13,-17 -16,-25 -32,-44l-56 -79c-15,-20 -16,-16 -30,-39 -20,-31 -8,-15 -33,-41l-27 -41c-25,-35 -60,-97 -98,-121 11,-42 51,-95 78,-134l20 -31c50,-98 115,-180 172,-277l99 -164c16,-22 23,-4 7,-42 -36,-1 -30,11 -51,40 -12,17 -12,14 -22,30l-74 121c-8,13 -13,21 -19,31l-228 366c-28,42 -24,75 9,112l236 297c23,47 96,127 129,176 21,31 20,13 36,57 41,112 11,97 -58,233 -23,45 -31,37 -55,97l-58 95c-13,23 -5,13 -16,35 -13,29 -19,21 -36,57 -19,40 -85,178 -114,187 -15,-53 -8,-100 -14,-158 -5,-46 -9,-24 -21,-49l-20 -96c-7,-43 3,-72 -8,-121 -15,-63 -30,-147 -30,-216 0,-74 -14,-35 -20,-93l-23 -170c-2,-19 1,-39 -2,-58l-15 -108c-9,-33 -9,4 -12,-45l-31 -276c-18,-82 -20,-193 -29,-217 -22,-66 4,-152 -44,-202 -39,-41 -88,-75 -122,-123 -39,-56 -86,-91 -130,-141l-160 -187c-48,-49 -109,-104 -147,-157 -26,-36 -62,-62 -92,-94 -25,-27 -37,-34 -55,-64 -31,-52 -92,-84 -123,-130 -25,-37 -21,-55 -77,-34 -2,-50 -19,-87 -38,-130 -37,-81 -174,-218 -242,-267 -57,-41 -55,-70 -132,-121 -108,-73 -63,-45 -99,-158 -7,-21 -16,-43 -20,-63 -8,-35 0,-39 -15,-71l-46 -122c-13,-40 -23,-119 50,-86l131 40c114,35 117,-1 283,55 63,21 139,23 197,57 36,21 24,11 61,24 62,23 32,77 55,122l-1 -7zm3650 -51c-22,-6 -60,-28 -82,-42 -6,-96 -3,-242 10,-331 12,-85 -21,-260 16,-332 47,-8 130,54 155,106 71,143 94,297 22,444 -1,2 -23,42 -23,42 -6,8 -29,29 -34,35l-64 79 0 -1zm-6275 -330c49,11 40,23 67,52 23,25 37,23 60,58 -38,51 -50,42 -85,42 -2,-20 -3,-23 -7,-36l-36 -117 1 1zm1126 -169l11 6c5,3 13,8 15,10l212 212c32,34 40,33 64,71 38,60 62,91 -15,91 -23,0 -12,-6 -28,-14 -2,-1 -9,-5 -11,-6 -10,-5 -8,-3 -18,-7 -103,-43 -5,-19 -144,-50 -29,-6 -19,-15 -61,-15 0,-80 -18,-11 -15,-67 2,-52 32,2 3,-64 -21,-47 -13,-103 -13,-166l0 -1zm-1707 -110c-49,31 -190,36 -236,21 -115,-36 -90,-90 -122,-142 -20,-33 -32,-48 -24,-106 5,-33 8,-11 11,-53 5,-75 32,-178 79,-242l199 281c36,61 29,55 79,80 3,54 -5,120 14,161zm29 -229c0,-31 36,-86 51,-119 55,-122 195,-215 321,-264 63,-24 116,-48 186,-63 23,-5 40,-13 60,-21 45,-17 107,-25 154,-19 23,3 38,10 68,11 168,5 74,15 152,18 60,2 95,8 153,11 130,7 388,107 490,166 19,11 38,19 57,28l160 89c-2,46 -2,13 -13,53l305 389c119,160 115,171 202,356 12,26 9,21 18,51l42 135c9,38 13,67 24,104 9,34 21,52 31,94 7,29 12,70 20,106 10,43 30,47 30,92 0,207 43,403 -146,390 -26,-56 -32,-152 -51,-213l-95 -368c-19,-68 -52,-181 -84,-239l-49 -85c-66,-102 -82,-103 -115,-148 -34,-47 -76,-102 -124,-139 -20,-15 -23,-10 -42,-27 -12,-10 -16,-18 -29,-30 -23,-22 -109,-135 -146,-100 -20,42 3,79 4,127 1,71 12,86 12,119 0,153 26,309 -51,380 -56,52 -88,95 -187,43l-97 -80c-21,-34 -7,-20 -46,-39 -3,-57 12,-57 12,-102l0 -119c0,-41 -36,-238 -79,-268 -9,14 -6,3 -6,27l42 161c34,120 4,109 3,207 -1,96 -23,193 -78,275 -21,31 -34,39 -72,39 -80,0 -177,-4 -251,-38 -50,-23 -69,-46 -93,-92 -47,-92 -27,-63 -41,-148 -8,-51 -66,-34 0,-113 39,20 68,59 100,91 26,26 50,74 101,68 4,-33 -8,-48 -28,-64 -24,-20 -35,-21 -59,-43l-203 -203c-32,-33 -71,-86 -108,-80 -19,30 -16,40 -6,75 11,40 3,47 8,83 6,46 16,31 17,76 0,42 -1,41 7,80 8,36 4,53 5,90 1,43 9,35 12,68 3,33 -2,56 5,90 8,39 8,37 8,79 1,56 9,41 14,77 4,30 -3,58 5,89 9,36 11,26 11,79 0,45 6,45 11,77 5,30 0,61 2,92 2,40 10,33 12,76 2,29 -3,64 0,93 4,57 15,8 15,68 0,95 8,190 -15,281 -8,31 -5,35 -33,55 -122,87 -157,-207 -175,-287l-94 -489c-18,-172 -53,-324 -79,-494 -7,-49 -7,-97 -22,-141 -11,-33 -19,-102 -22,-144 -7,-93 -14,-85 -52,-113l-74 -52c-26,-25 -46,-47 -56,-96 -1,-3 -1,-5 -2,-7 -1,-3 -1,-5 -2,-7 -13,-63 -5,-143 -5,-208l0 4zm-300 -330c14,-61 141,-172 188,-206 124,-89 121,-63 196,-100l150 -46c76,-17 151,-21 170,-25 24,-5 41,-25 71,-8l98 97c25,22 82,76 92,100l-103 23c-42,9 -66,4 -109,8 2,2 5,6 10,12 7,9 4,-2 10,16 -42,2 -25,11 -111,13 -18,34 16,6 -55,42l-136 84c-42,27 -81,70 -113,107 -89,105 -75,161 -111,216 -20,-6 -6,6 -37,-36l-158 -233c-32,-53 -33,-32 -56,-67l4 3zm755 -155l-1 0c10,24 -12,-13 1,0zm5013 -328c0,-75 11,-2 27,-126 8,-67 61,-152 102,-204l30 -38c1,-1 3,-3 4,-4l8 -8c61,-68 123,-116 205,-160 47,-25 58,-29 113,-41 137,-31 165,-30 307,-9 24,4 41,12 64,18 109,29 31,6 116,45 12,5 18,7 29,13 42,21 121,99 155,133 82,82 114,166 147,270 1,3 1,-2 6,20 1,3 1,5 1,7 1,3 1,5 1,8 20,115 4,47 2,94 -1,51 19,-20 -1,135l-6 35c-35,111 -80,208 -160,295 -16,17 -58,60 -73,71 -25,18 -21,13 -43,32 -38,33 -222,97 -247,97 -174,0 -262,24 -417,-54 -17,-9 -29,-12 -47,-21l-83 -61c-22,-18 -49,-48 -68,-67 -134,-134 -173,-301 -173,-480l1 0zm-4998 -46c-37,-36 -78,-91 -126,-119 -42,-25 -80,-76 -118,-111l-89 -72c-59,-49 -105,-122 -162,-160 -59,-39 -104,-105 -161,-152l-87 -74c-36,-38 -75,-86 -120,-116 -75,-50 -137,-133 -209,-189 -35,-26 -48,-48 -82,-79 -20,-19 -19,-18 -38,-38 -23,-25 -17,-23 -59,-23 0,53 -6,36 33,59 28,16 58,50 72,78 28,58 17,18 54,58 1,1 3,3 4,5l137 133c22,17 31,19 45,40 21,33 51,49 74,78l185 170c13,9 8,4 20,13 27,18 42,51 73,79 1,1 3,3 4,4l173 158c1,1 3,3 5,4l27 24c15,13 28,24 41,34l85 76c49,49 122,86 168,138 37,41 69,29 70,79 -37,3 -73,-1 -108,1 -39,2 -50,17 -87,24 -34,7 -61,5 -92,15 -113,39 -233,75 -328,147 -1,1 -3,3 -5,4 -1,1 -4,2 -5,3l-95 75c-25,21 -10,27 -49,61 -58,50 -96,137 -122,209 -9,25 -26,51 -33,76 -17,62 10,130 -31,183 -20,-12 -21,-25 -40,-46l-131 -208c-10,-19 -17,-39 -28,-57 -27,-47 -63,-116 -93,-152 -18,-22 0,10 -18,-26 -7,-14 -6,-16 -13,-29l-159 -263c-12,-22 -10,-25 -26,-51l-248 -420c-5,-9 -10,-19 -15,-27l-293 -493c-20,-37 -46,-71 -60,-110 -12,-32 -13,-30 -28,-56 -20,-34 -6,-30 -20,-65 -14,-38 -26,-18 -23,-64 5,-60 11,1 18,-60 3,-26 -2,-56 1,-84 12,-93 -2,-97 33,-136 35,-39 54,-73 100,-91 3,-1 8,-2 17,-4 34,-9 2,5 31,-11 12,-7 4,-6 25,-17 28,-15 61,-14 89,-29 28,-15 104,-23 143,-23 134,0 169,13 276,61 39,17 77,50 101,59 45,16 17,-9 59,26 36,30 22,11 55,30l130 72c32,11 49,31 79,49 24,15 31,18 53,32l68 50c12,9 12,12 22,20 12,11 34,24 50,35l385 283c21,14 35,24 50,36l696 516c11,8 12,11 23,19 62,51 134,86 192,139 27,24 24,17 49,36l717 528c21,13 26,22 47,38 19,14 25,20 45,32l522 400c12,9 31,18 48,29 34,23 34,32 67,60l40 35c1,1 3,3 4,4l67 50c-11,15 -21,25 -42,41 -8,6 -6,4 -15,11l-298 214 -55 -75c-22,-39 -11,-43 -42,-85l-105 -140c-42,-59 -104,-116 -147,-175 -41,-56 -47,-42 -47,-128l-131 -99c-1,-1 -3,-3 -4,-4 -1,-1 -3,-3 -5,-4 -1,0 -35,-20 -38,-21l-267 -96c-13,-4 -30,-10 -45,-14l-187 -52c-61,-14 -147,-22 -210,-38 -136,-34 -211,34 -326,-77 -1,-1 -3,-3 -4,-4 -54,-57 -94,-70 -110,-136 -5,-19 -4,-35 -4,-55 -54,-36 -42,-27 -88,-72l-1 -3zm6030 -1286c-13,20 -49,32 -75,33 -36,2 -47,-7 -69,-28 -53,-49 -97,-53 -133,-71 -40,-20 -37,-27 -89,-46 -7,-2 -12,-5 -19,-7 -105,-33 -239,-49 -293,-71 -38,-16 -234,-29 -277,-29 -161,0 -157,-11 -300,16l-164 46c-49,16 -177,69 -211,94 -30,21 -33,23 -70,40 -54,24 -33,26 -58,42 -36,22 -26,-2 -64,38l-119 93c-62,45 -110,88 -177,128 -43,26 -30,29 -56,52 -20,17 -16,0 -43,34 -7,8 -2,4 -12,14 -7,7 -6,5 -14,12l-63 64c-88,82 -184,230 -254,173l-27 -35c-10,-15 -16,-15 -18,-33 -3,-24 93,-210 115,-248l29 -47c7,-10 4,-7 10,-15 128,-182 93,-109 218,-247l367 -250c85,-53 180,-79 253,-113 6,-3 27,-14 33,-17l455 -163c100,-32 54,-13 127,-23 43,-6 2,-11 43,-11l161 0c10,0 46,12 85,13 20,0 19,0 37,4l25 8c196,58 -2,-26 258,90 66,29 -4,-20 116,53 69,42 177,156 218,215l35 49c20,30 13,35 19,69 5,30 6,14 7,37l-3 30c0,-1 -1,5 -2,8l-1 -1zm-1205 4491l-60 51 -2 91c-21,0 -29,2 -46,-3 -23,-8 -26,-19 -32,-28 -19,-34 -24,-101 -18,-145 8,-53 6,-7 15,-45 9,-42 -10,-155 23,-307 7,-32 4,-71 4,-105 0,-49 -5,-59 -40,-76l-38 30c-1,1 -3,3 -4,4 -1,1 -3,3 -4,5 -29,35 -31,72 -118,49 -2,-28 7,-70 -10,-91 -25,-29 -17,-2 -21,3 -9,3 -38,24 -67,0 12,-27 2,-9 37,-29 20,-12 24,-15 43,-26 54,-31 2,-16 88,-57l277 -137c34,-22 7,-24 61,-42 55,-18 36,-21 74,-35 23,-8 32,-4 60,-16 18,-7 30,-17 46,-24 23,-9 34,-17 55,6 9,8 22,-6 16,81l-36 195c-18,42 2,15 -27,27l-110 0c-31,-7 -21,-51 -64,-40 -19,4 -42,36 -53,56 -5,9 -10,23 -18,34 -39,54 -14,7 -26,82 -4,27 -8,16 -11,53 -5,61 -6,395 5,441l1 -2zm-353 -536c9,81 -3,106 105,90 37,-5 40,-12 58,-38 8,-12 27,-42 47,-45 3,27 3,54 3,81 0,67 -31,123 -31,228 0,71 -1,104 -10,162 -9,54 4,116 -5,171 -107,10 -323,-78 -409,-130l-202 -128c6,-15 9,-19 18,-30 34,-38 132,-83 177,-128 24,-23 20,10 18,-49 -45,3 -42,16 -83,44 -24,16 -45,38 -72,54 -10,6 -14,7 -17,9l-52 41c-24,14 -62,29 -87,40 -62,27 -138,40 -217,29 -94,-13 -64,-7 -99,-30 -46,-30 -41,5 -67,-60 -22,-54 -37,-131 -44,-200 -9,-89 33,-202 69,-286 22,-54 70,-108 95,-158 15,-28 40,-59 42,-81l-16 -14c-45,12 -61,76 -84,113l-47 82c-2,-2 -4,-8 -4,-7l-13 -26c-5,-12 -7,-20 -13,-36l-55 -188c-1,-2 -1,-5 -2,-7l-136 -501c-13,-56 -20,-107 -32,-161l-14 -78c-21,-63 -32,-270 -46,-355 -4,-26 -2,-73 -2,-101 0,-38 3,-49 -7,-84 -21,-72 -6,-210 -7,-289 -1,-58 -11,-41 -15,-84 -17,-184 25,-408 -10,-586 -12,-62 -8,-447 6,-492 3,-10 9,-26 11,-31l73 -274c21,-50 22,-20 30,-73 7,-47 15,-46 35,-82l35 -92c32,-108 212,-266 310,-332 52,-35 103,-84 166,-121l235 -163c58,-43 214,-91 286,-111 18,-5 62,-18 82,-22 51,-9 332,-26 367,-9l-61 36c-22,14 -64,17 -89,23l-107 37c-2,1 -4,2 -6,2 -2,1 -4,2 -6,2 -19,5 -32,4 -52,5 -17,22 -9,11 -21,35 -54,5 -47,-7 -88,17l-36 16c-33,12 -40,27 -70,38 -55,19 10,10 -76,43l-12 5c-12,6 -6,4 -20,14 -28,19 -158,76 -208,114 -57,44 -136,81 -187,135 -28,29 -26,23 -61,49 -58,43 -104,115 -150,172l-125 196c-13,23 -22,47 -35,75 -50,109 -67,96 -2,191 24,34 56,57 104,40 1,0 18,-6 19,-7 44,-18 67,-65 107,-89 64,-40 114,-96 173,-150 22,-20 40,-25 63,-47l116 -105c75,-59 234,-192 308,-234 112,-64 168,-99 292,-140 28,-10 48,-21 78,-30 97,-30 379,-57 501,-31 34,7 68,2 101,10 25,5 70,15 92,19l171 41c37,7 51,11 85,23 132,48 83,37 190,97 154,87 110,42 140,115 18,44 58,97 67,143 6,30 -3,17 11,42 21,37 4,-21 22,39 9,31 9,57 13,94 4,41 18,45 25,85l14 101c0,143 7,49 34,183 1,7 8,35 10,43 6,23 11,17 10,41 -30,-10 -37,-49 -60,-69l-252 -121c-1,0 -28,-11 -29,-12 -24,-6 -35,-3 -61,-6 -58,-8 -131,-20 -193,-6 -169,37 -56,7 -216,63 -56,19 -42,22 -87,49 -87,53 -184,155 -235,248 -35,64 -56,130 -69,205 -8,49 -7,16 -15,52 -16,78 3,128 15,194 5,29 6,33 12,60 33,150 94,196 179,303l27 24c2,2 27,32 87,66 66,39 48,52 189,90 125,33 258,39 385,3 2,-1 4,-1 7,-2 14,-4 12,-2 26,-7 93,-33 108,-45 185,-94 30,-19 20,-13 42,-34 19,-18 19,-15 39,-29 29,-20 16,-18 31,-36l78 -60c4,73 11,211 -5,276 -37,145 29,438 -12,563 -27,84 -7,191 -13,283 -55,3 -84,-21 -131,-35 -37,-11 -93,-44 -122,-14 32,48 230,84 298,126l57 44c71,84 73,234 44,332 -6,20 -7,21 -13,37 -53,143 -150,172 -301,183 -53,4 -158,3 -193,25 8,48 81,30 143,30 58,0 103,-31 128,28 -19,42 -24,27 -46,99 -11,35 -22,82 -37,117 -77,186 -74,211 -240,359 -18,16 -20,20 -37,39l-84 69c-17,14 -28,20 -45,31 -46,32 -98,47 -146,74l-135 68c-62,29 -258,66 -333,74 -36,4 -40,7 -62,11 -25,5 -47,0 -72,4 -32,4 -111,35 -105,-30 5,-46 7,-4 37,-52 57,-98 -15,-376 25,-499 18,-54 -10,-72 77,-169l24 34c187,2 200,36 221,-153 5,-45 13,-48 13,-102 0,-37 -1,-73 1,-110 86,-34 106,-20 153,-45 27,-14 44,-20 79,-25 70,-9 34,-10 73,-25 39,-15 148,-5 197,-5 118,-1 43,17 186,17 64,0 142,4 204,0 53,-3 108,-51 119,-88 15,-52 21,-122 5,-173 -16,-50 -106,-129 -151,-156l-140 -65c-33,-16 -242,-62 -296,-51 -89,19 -233,24 -303,54 -102,43 -181,57 -226,77 -29,13 -35,24 -67,33 -126,36 -154,101 -209,111 -13,2 5,-5 -11,3 -126,65 -323,170 -458,198 -94,19 -365,142 -418,194l-111 100c-69,69 -43,36 -84,120 -46,93 -87,231 -33,326 26,44 50,80 120,82 86,3 227,-56 292,-113 26,-23 29,-25 62,-41 65,-31 60,-23 131,-72 26,-18 27,-37 57,-50 32,9 14,14 44,22 22,6 44,2 64,-3l-4 2zm-1117 -4975c5,-37 13,-13 13,-52l0 -347c0,-45 -15,-40 -17,-93 -2,-62 -19,-135 -28,-194 -3,-21 -10,-70 -16,-97 -24,-118 -41,-241 -73,-358l-76 -357c-10,-54 -54,-160 30,-97l300 242c27,18 39,68 78,78 7,2 8,-14 27,11 46,61 -5,27 89,83l23 20c27,24 20,29 58,51l236 196c99,106 361,337 426,437 46,70 168,144 213,219 14,24 0,13 24,36 47,46 92,115 159,43 20,-22 33,-33 51,-51 43,-43 50,-75 107,-112l411 -453c23,-32 30,-34 49,-62l213 -320c13,-26 21,-50 37,-74 14,-21 9,-12 23,-37 62,-112 47,-44 80,-182 23,-6 40,-9 55,-16 2,51 85,208 105,277l67 255c21,78 7,216 7,301 0,65 2,117 -19,179 -16,49 -30,204 -45,268 -18,76 1,168 -5,248 -3,40 -7,26 -11,60 -2,19 1,40 -2,58 -6,47 -19,10 -18,90 65,21 90,4 152,-19l132 -30c64,-10 152,-3 216,-21 2,-1 4,-1 6,-2l31 -4c61,-7 19,-9 68,-16l129 -11c82,-12 170,-43 184,-42 44,3 -5,25 60,-3 41,-17 104,-24 144,-43 22,-11 22,-20 58,-23 5,50 1,45 -24,74l-198 302c-62,105 -55,114 -96,200l-244 553c-19,45 -84,135 -50,178 12,16 -5,-3 14,12 1,1 4,2 5,3l183 131c17,11 37,24 56,38 30,22 54,47 89,63l33 17c24,17 2,6 29,22 82,46 156,68 251,88 58,12 124,-13 155,46 -13,28 -75,67 -104,88l-267 198c-16,17 -24,27 -43,42l-48 46c-14,18 -30,35 -43,49l-45 55c-1,2 -2,4 -3,5l-166 262c2,53 63,121 93,164l248 278c20,21 48,31 71,48 13,9 7,5 18,15 102,87 169,71 170,151 -19,9 -32,12 -49,18 -120,43 -237,80 -343,149 -2,1 -4,2 -5,3l-212 144c-15,12 -12,15 -27,26 -15,-21 -16,-21 -29,-45 -33,-60 -69,-124 -127,-161 -94,-60 -138,-44 -101,-225 9,-45 4,-95 4,-142 0,-110 -13,-162 -13,-178 0,-35 15,-51 29,-81l41 -147c5,-51 15,-23 15,-68 0,-106 -5,-219 -50,-314 -15,-31 -15,-83 -40,-102 -36,-28 -73,-73 -76,-126l-30 -218c-46,-218 -40,-292 -139,-504 -11,-23 -17,-47 -31,-62l36 -25c75,-45 56,-147 39,-222 -7,-30 -101,-152 -126,-177 -22,-22 -34,-31 -56,-55 -88,-98 -215,-129 -328,-188 -36,-19 -78,-24 -118,-34l-222 -39c-66,-2 -137,0 -204,0 -237,0 -373,-11 -601,26 -56,9 -143,41 -195,65 -16,7 -23,11 -36,16 -126,43 -171,114 -258,147 -1,0 -18,7 -18,7 -23,12 -32,31 -40,36l-137 100c-111,80 -295,230 -357,339l-92 211c-1,2 -2,4 -3,6 -43,104 -63,209 -90,317 -6,24 -15,54 -24,78 -12,32 -6,-9 -13,39 -10,72 -7,427 3,463 23,86 14,101 14,197 0,100 -13,329 4,412 20,97 2,200 8,299 2,31 12,50 13,84 1,34 -1,69 -1,103 1,102 46,117 -61,181 -79,47 -107,95 -153,168 -20,32 -45,75 -45,116 0,203 -23,181 62,360 20,42 52,89 85,120l53 39c80,42 45,36 110,50 65,14 36,25 80,37 112,29 74,10 91,87 8,37 27,44 34,95 14,103 -14,48 32,75 1,47 29,146 19,185l-33 111c-20,67 -110,81 -175,73 -3,-29 17,-81 25,-113 31,-125 -14,-254 -15,-373l-34 -5c-101,-28 -231,-5 -335,-10 -48,-3 -39,-13 -93,-14 -90,-2 -188,8 -276,-2 -3,-36 66,-113 86,-152l8 -19c30,-80 60,-145 68,-239l25 -116c14,-47 -14,-72 -59,-90l-34 -10c-45,-13 -85,-24 -123,-39 -70,-27 -159,-42 -235,-69 -101,-36 -243,-55 -349,-76 -44,-9 -94,-3 -107,-55 -12,-49 55,-79 91,-106l229 -169c14,-12 2,-2 14,-11l98 -79c31,-21 15,-17 33,-44 17,-25 54,-53 79,-81l133 -192c-13,-72 2,-51 -63,-76 -29,-11 -52,-29 -85,-41 -152,-58 -370,-169 -496,-274 -15,-13 -4,-3 -19,-14l-50 -36c-1,-1 -4,-3 -5,-4l-76 -59c-32,-32 -44,-31 -71,-56 -41,-39 -13,-30 -74,-51l-181 -83c-50,-28 -129,-44 -165,-85 4,-2 14,-7 19,-10 174,-107 97,-65 318,-115 47,-11 177,-10 206,-22 61,-26 224,-26 304,-41 24,-5 30,-4 54,-7 63,-9 162,-41 214,-64l252 -155c48,-32 29,-42 3,-79l-117 -162c-1,-1 -3,-3 -4,-5 -6,-8 -8,-12 -14,-21l-287 -408c-1,-2 -2,-4 -3,-5l-77 -110c-9,-13 -8,-13 -16,-26 -1,-2 -5,-9 -6,-11l-66 -95c-47,-60 -133,-224 -189,-301l-76 -137c-16,-31 -15,-12 -24,-50 98,-3 186,26 282,37 29,3 44,10 77,12 51,3 29,4 62,12 122,32 403,16 531,16 13,0 62,-12 161,-12 62,0 93,-16 161,-15l315 -28c-2,-84 -45,-12 -22,-106 10,-42 16,-74 23,-115 5,-29 6,-23 11,-53 2,-15 1,-14 5,-29l13 -87 -3 2zm1038 2393c-43,-9 -64,-30 -100,8 -67,71 31,150 95,95 39,-34 12,-65 5,-103zm1047 -83c-92,33 -69,141 16,135 78,-5 68,-98 39,-121l-55 -14zm-3400 3340c-128,106 141,138 71,15 -10,-18 -27,-29 -48,-26 -45,6 -7,-1 -23,12l0 -1zm-1594 301c7,12 5,26 29,37 40,18 60,-1 81,-18 -2,-65 6,-46 -25,-80 -36,-1 -86,-4 -86,61l1 0zm3428 -1126c-14,-48 -27,-70 9,-109 2,-2 7,-7 9,-8l27 -24c35,-35 75,-63 117,-79 37,-14 59,-30 59,34 0,44 -10,57 -25,92l-19 41c-13,17 -61,66 -92,71 -23,4 -66,-10 -84,-18l-1 0zm837 -118c-4,-54 1,-56 28,-92l47 -64c42,-58 76,-77 158,-75l42 78 -59 52c-13,6 -20,5 -38,13l-176 88 -2 0zm-576 -57c-1,-77 -2,-105 62,-118 12,-3 7,0 21,-5 33,-11 100,-72 175,-61 8,86 -4,55 -27,107 -26,58 -7,54 -59,84 -2,1 -4,2 -6,3l-78 36 -89 -45 1 -1zm949 -182c8,-12 46,-53 56,-61 17,-13 9,-5 21,-13 48,-31 11,-18 58,-30 117,-29 133,90 49,119 -10,3 -17,6 -26,9 -48,18 -148,56 -201,62l43 -87 0 1zm665 -52c-10,-45 41,-89 94,-103 13,-4 18,-7 35,-2 33,10 25,58 25,107l-153 -2 -1 0zm-322 17c6,-30 30,-57 48,-81 21,-27 36,-46 76,-53 126,-22 133,106 50,121 -5,1 -19,1 -24,2l-150 12 0 -1zm-962 -5c52,-30 104,-37 191,-84 2,-1 4,-2 6,-3 47,-21 61,11 61,11l-52 69c-82,77 -25,90 -192,82 -10,-41 -16,-24 -13,-75l-1 0zm345 -157c26,-22 30,-40 66,-51 35,-11 12,7 44,-16 19,-14 7,-14 34,-25 29,-13 12,2 42,-18 116,-80 81,43 58,76 -8,11 -5,5 -15,18 -17,24 -15,29 -41,43 -60,32 -96,74 -159,13l-28 -40 -1 0zm382 -185c2,-1 4,-2 5,-3l10 -6c2,-1 8,-5 10,-6 31,-17 30,-15 70,-18 57,-5 22,-6 59,-22 33,-14 20,-3 48,12 2,59 9,65 -40,114 -43,43 -176,57 -190,-50l27 -21 1 0zm-175 -311c-55,-1 -95,-35 -120,-65 -121,-140 -77,-387 -134,-428 -23,33 8,108 13,189 4,60 19,116 46,177 32,71 45,82 102,120 26,17 26,32 68,37 130,16 113,-21 134,-106 14,-56 8,-305 8,-372 0,-74 -24,-136 -44,-208 -12,-44 -40,-148 -82,-177 -6,10 -6,3 -7,21 -2,36 42,84 61,165 66,288 45,86 46,479 0,46 4,77 -13,112 -33,66 1,56 -78,56zm-4143 3357c42,5 22,4 46,-11 2,-1 4,-3 5,-4 41,-26 96,-67 116,-113 7,-17 2,-5 9,-27 8,-24 8,-21 18,-45 14,-37 31,-75 15,-112 -44,15 -40,50 -51,91 -47,177 -162,151 -158,221z"/>
   <path class="fil1" d="M10080 14717c5,27 14,33 20,49 8,21 5,28 5,42l614 0c-11,-15 -1,12 -13,-31l-26 -94c-9,-35 -12,-56 -14,-96 -41,-7 -30,-28 -82,-10 -24,9 -28,29 -52,42 -24,13 -48,4 -78,16 -22,9 -36,27 -56,32 -35,9 -50,1 -90,14 -189,62 -156,-9 -228,36z"/>
   <path class="fil2" d="M10033 14724c-7,-28 0,-45 -22,-88l-45 -133c-6,-23 -7,-44 -12,-65l-127 0c0,90 8,65 -12,132 -11,35 -1,74 -5,105 -3,23 -3,15 -7,27 -7,23 -4,-11 -9,33 -2,18 -7,45 -14,73l288 0c-1,-2 -1,-5 -2,-7l-33 -77z"/>
   <path class="fil3" d="M9763 14680c5,-27 0,-54 3,-81 4,-39 10,-22 13,-68 12,-187 -108,-60 -244,-155 -49,-34 -94,-168 -101,-210 -4,-21 -6,-37 -9,-53l1 -238 24 -89c-22,-20 -32,-44 -30,-77 -35,-35 -48,-130 -157,-264 -46,-56 -116,-19 -198,-42 -63,-18 -136,5 -302,-27 -44,-9 -91,-13 -138,-22 -41,-8 -90,-25 -124,-36 -70,-22 -180,-64 -237,-96l-93 -59c-1,-1 -4,-2 -5,-3 -75,-56 -141,-129 -209,-196 -53,-52 -63,-74 -106,-131 -14,-18 -43,-54 -49,-78 -1,-4 -2,-24 -3,-30 -8,-1 -33,-2 -38,-3 -25,-7 -12,1 -24,-12 -79,10 -139,25 -190,81 -18,19 -45,49 -67,69 -32,28 -19,-1 -71,55 -63,68 -123,106 -143,128 -103,112 -76,57 -137,125 -85,95 -81,69 -109,94 -13,11 -14,19 -32,35 -28,24 -40,42 -73,63 -25,16 -41,36 -66,61l-216 191c-31,21 -36,37 -65,62l-143 127c-11,11 -21,26 -33,35 -36,29 -33,9 -105,90 -31,35 -120,90 -137,134 -9,24 8,65 26,93l111 186c5,8 5,10 12,21 29,44 59,73 95,108 19,19 12,13 38,30 68,44 150,79 220,110 58,25 128,48 183,77 22,-36 87,-91 120,-125 53,-55 291,-286 318,-325 40,-57 447,-443 465,-475 18,-32 21,-49 68,-45 2,36 -7,47 -29,67l-155 151c10,40 11,10 23,42l-165 474c-42,111 -93,219 -157,319l-23 40 2431 0c1,-3 1,-6 2,-8 4,-20 4,-17 9,-33 10,-27 0,13 9,-26 3,-14 10,-51 12,-61z"/>
   <path class="fil4" d="M9995 14393c1,38 29,144 45,182 14,32 9,19 15,61 53,2 125,4 177,1l390 -136c6,-51 4,-46 -10,-83 -13,-33 -10,-43 -18,-78 -4,-20 -16,14 -1,-33 18,-56 142,-82 206,-118 31,-18 21,-21 58,-34 36,-12 28,-5 55,-30l187 -177c38,-58 49,-52 48,-139 -2,-179 21,-173 -52,-222 -25,-16 -26,-22 -47,-37 -23,-16 -33,-16 -59,-25 -153,-55 -109,92 -121,168l-31 0c-11,-45 -5,-88 3,-132 9,-45 4,-96 4,-142 0,-102 13,-170 13,-271 0,-125 14,-262 13,-423 -1,-118 8,-59 14,-118 8,-84 -11,-101 -14,-128 -5,-38 1,-102 0,-143 -1,-59 -21,-78 -25,-127 -8,-95 -31,-195 -86,-275l-83 -128c-14,-26 -2,-38 -65,-72 -28,15 -38,9 -60,42 -32,50 -36,34 -38,61l3 309 27 72c41,134 21,118 45,216 8,32 5,-3 10,39 12,102 11,36 23,84 9,36 -2,52 11,98 9,32 6,60 6,96 -1,272 11,158 -27,382l-34 164 -25 0c-18,-22 -1,-17 -19,-44l-79 -115c-1,-2 -3,-4 -4,-5l-14 -20c-8,-14 -11,-29 -19,-41l-42 -74c-34,-43 -76,-85 -152,-85 -95,0 -86,34 -135,94 -18,47 -9,40 -36,84 -29,47 -24,149 -6,185 14,29 28,51 7,78 -27,-10 -35,-55 -54,-106 -17,-47 -26,-65 -56,-105 -47,-62 -74,-151 -169,-147 -132,6 -127,142 -146,170 -36,53 -31,22 -31,130 0,57 -14,98 51,100l21 -19c10,-14 13,-15 12,-71 -1,-55 -13,-74 26,-102 9,22 2,151 -4,173 -13,43 -15,138 -30,168 -30,-9 -50,-53 -63,-81 -13,-28 -66,-98 -109,-180 -13,-25 -12,-34 -21,-54l-252 -382c-19,-46 -23,-30 -40,-73 -31,-79 -32,-57 -61,-115 -43,-86 -70,-112 -114,-174 -4,-6 -5,-9 -10,-16 -1,-1 -2,-3 -3,-5 -1,-1 -2,-3 -3,-5 -60,-96 -15,-14 -59,-68l-58 -62c-20,-22 -14,-31 -30,-46l-25 -17c-1,-1 -3,-3 -5,-4 -47,-33 -54,-23 -122,-4 -4,30 39,185 49,212 43,113 54,95 120,210 56,97 101,140 134,205 22,42 34,39 53,74 3,6 9,21 10,23 13,23 5,7 14,21l76 128c34,66 69,90 89,172l85 178c11,15 17,16 31,38 30,48 42,95 59,138 18,24 49,89 53,119 5,33 -48,202 -17,326 35,138 71,277 243,277 93,0 118,16 161,11 49,-6 11,-14 57,-5 29,6 49,4 80,7z"/>
   <path class="fil5" d="M10694 14474c21,52 40,92 50,154 11,68 10,34 27,75l25 94c0,2 1,4 2,6l2 5 1291 0 17 -21c0,0 5,-8 10,-15l148 -217c16,-66 -41,-83 -49,-158 -2,-24 2,-8 -5,-29l-24 -53c-9,-31 -6,-53 -20,-81 -49,-95 -16,-68 -40,-121 -9,-20 -9,-8 -17,-34l-26 -101c-32,-74 -12,-78 -34,-135 0,-2 -1,-4 -2,-6l-22 -54c0,-2 -1,-4 -2,-6 -3,-7 -5,-14 -7,-19l-22 -88c-1,-5 -7,-30 -11,-39 -38,-78 -47,-166 -72,-250 -3,-11 -3,-10 -6,-19l-79 -361c-18,-139 -30,-150 -46,-268l-15 -96c-18,-55 -5,-124 -23,-180l-18 -100c-10,-28 -7,-51 -11,-82 -2,-16 -4,-75 -8,-94 -10,-49 -7,15 -15,-45 -2,-15 0,-33 -2,-49 -2,-25 -3,-62 -7,-94 -5,-40 -14,-42 -17,-93 -3,-58 -15,-18 -17,-84 -2,-47 -6,-60 -8,-102 -1,-25 2,-24 -5,-46 -17,-59 -15,-72 -20,-141 -4,-46 0,-54 -12,-90 -12,-35 0,-63 -11,-99l-35 -228c-7,-29 -2,-66 -10,-92l-13 -38c-8,-17 1,-2 -10,-16 -8,-10 1,4 -12,-13l-10 -16 -3 -6c-30,-48 -91,-90 -127,-136l-16 -18c-1,-2 -3,-4 -4,-5 -37,-45 -103,-90 -130,-141 -22,-40 -95,-97 -132,-147l-103 -108c-12,-13 -18,-18 -30,-30 -17,-17 -12,-12 -22,-29 -40,-63 -107,-103 -146,-167 -13,-22 -83,-87 -110,-94 -12,51 -9,115 -9,178 0,35 2,52 13,80l8 18 17 42c13,27 18,35 31,62 7,16 -3,0 9,17l8 9c24,28 17,33 30,71l118 330c3,9 6,27 7,36 15,95 34,88 39,147 2,24 4,58 9,84 5,29 17,31 22,62 5,29 -2,60 4,89 8,35 15,20 15,78 0,53 -6,43 17,76 1,2 3,4 4,5l54 73c22,37 33,45 46,90l12 38c22,80 19,107 20,200 0,13 1,38 -1,50 -6,44 -3,13 -17,50l-5 12 -22 71c-24,52 -41,95 -85,135 -32,28 -75,51 -117,61l17 440c5,42 19,29 25,60 11,57 0,225 1,287 1,90 -18,51 -26,101 -1,7 0,26 0,34 0,53 -8,90 -8,153l0 161 152 43 18 7 30 21c1,1 3,2 5,3 31,19 30,22 48,54 27,47 35,87 35,151 0,72 -9,111 -9,178 -51,27 -25,25 -50,69 -8,14 -41,47 -54,65 -16,23 3,11 -27,32 -92,64 -100,89 -211,144l-112 49 -6 3 -81 37c11,47 17,105 35,152l5 12z"/>
   <path class="fil5" d="M12306 14596c-36,79 -94,138 -142,206l-4 6 808 0c4,-7 9,-14 16,-22 17,-21 14,-13 30,-38l22 -37c21,-33 35,-29 54,-64l260 -367c35,-38 98,-151 129,-183 32,-32 53,-70 80,-108 10,-14 18,-27 28,-40l645 -907c11,-17 9,-19 21,-34l36 -48c1,-1 2,-3 3,-5 5,-7 7,-9 11,-15l67 -94c1,-2 3,-4 4,-5l142 -197c2,-2 6,-8 7,-10 3,-6 5,-10 9,-16l332 -549c44,-63 64,-143 104,-209 40,-67 65,-138 89,-213 29,-94 3,-138 40,-207 24,-46 17,-176 2,-227 -10,-32 -5,-25 -8,-59 -5,-55 -23,-101 -38,-152 -7,-23 -13,-27 -22,-44 -33,-63 3,-41 -59,-118l-82 -112c-13,-21 -7,-15 -24,-35l-188 -252c-36,-53 -123,-123 -172,-167l-215 -182c-24,-16 0,-18 -46,-11 -31,112 -25,78 -70,174 -6,12 -9,26 -13,36 -12,32 -92,132 -118,171 -13,20 -75,74 -99,97l-109 85c-31,21 -46,18 -70,31l-128 68c-29,15 -23,25 -55,35 -62,20 -70,18 -121,63 2,45 18,50 17,101 -1,60 5,61 12,103 7,38 -3,78 4,116l22 213c0,17 -2,44 0,60 7,51 6,7 14,45 8,34 -2,75 6,114l36 205c4,45 -4,67 7,109 8,31 23,60 24,94l11 104c6,43 -4,74 7,114 14,49 30,93 34,146 4,62 -9,90 32,139 8,-11 5,-12 14,-23 6,-8 14,-14 21,-21 32,-34 89,-136 123,-183 114,-159 101,-117 27,-206 -37,-45 -55,-42 -18,-81l227 -442c72,-125 57,-108 15,-192 -9,-18 -10,-30 -17,-44 -26,-55 -71,-115 -102,-168 -45,-76 -95,-171 -144,-237 -12,-17 -2,2 -14,-20 0,0 -8,-16 -8,-17 -21,-41 -31,-34 -29,-77 19,0 31,6 43,21l41 52c1,1 3,3 4,5l108 179c14,24 10,14 19,39 11,31 25,39 39,66 1,0 7,17 7,18 14,34 32,45 50,75l72 123c47,89 15,16 -2,131 -6,43 -18,41 -37,74l-77 151c-29,81 -143,219 -156,299 42,25 37,48 74,63 33,-23 77,-100 102,-137l25 -35c8,-12 15,-25 22,-37 18,-29 32,-45 64,-50l24 28c-6,18 -53,87 -66,104l-140 206c-1,1 -2,3 -3,5l-29 48c-75,103 -190,289 -254,372 -15,20 -18,28 -30,46l-17 25c-6,8 -12,17 -17,24 -4,7 -4,7 -10,16l-340 490c-9,12 -9,11 -15,20l-102 144c-19,21 -13,15 -31,44 -12,21 -20,33 -35,50l-72 97c-3,4 -7,8 -11,15l-156 216c-18,24 -22,23 -37,47l-101 145c-27,39 -45,57 -60,100 -25,70 -44,67 -60,101l-12 31c-7,12 -10,12 -19,24 -1,2 -3,4 -4,5l-14 19c-26,28 -32,51 -54,73 -32,33 -10,4 -32,43 -29,51 -71,94 -104,141l-18 26c-17,22 -45,36 -56,61z"/>
   <path class="fil1" d="M13179 14609l-56 79c-10,12 -5,3 -17,17 -14,17 -1,0 -14,20 -25,39 -48,64 -63,83l1062 0c-3,-12 -4,-9 -6,-31 -3,-35 8,-54 -10,-81 -24,-37 -12,4 -26,-59l-35 -149c-4,-25 0,-20 -7,-45 -18,-62 -6,-59 -21,-107 -21,-66 -3,-106 -22,-167 -15,-49 -23,-96 -32,-147 -6,-34 0,-66 -19,-165 -20,-104 -15,-42 -30,-147 -50,11 -63,57 -102,101l-44 58c-39,59 -78,92 -98,129 -43,83 -107,116 -147,194 -20,37 -7,15 -30,38l-29 38c-55,69 -72,111 -78,118 -18,21 -13,8 -30,36 -8,13 -4,9 -13,22l-45 57c-24,27 -13,20 -28,41 -17,25 -40,36 -61,67z"/>
   <path class="fil5" d="M13961 13871l205 937 1404 0 -12 -25c-16,-56 -18,-37 -34,-74 -32,-78 -36,-71 -53,-159 -10,-53 2,-5 -19,-42l-45 -116c-7,-22 -2,-20 -7,-43l-55 -139c-8,-10 -4,-2 -11,-13l-56 -155c-15,-56 -12,-9 -39,-126 -9,-37 -21,-41 -30,-78l-222 -835c-22,-68 -30,-127 -43,-194l-62 -259c-16,-103 -19,-74 -34,-140 -4,-20 -4,-20 -8,-45 -4,-27 0,-16 -8,-41l-14 -35c-28,21 -6,1 -18,26 -4,9 -1,6 -7,18l-6 10c-10,16 -19,34 -34,50 -40,43 -37,61 -61,108l-80 132 -3 6 -3 6 -7 18c-11,22 -19,24 -30,45l-68 101c-28,29 -75,118 -103,144 -28,25 -63,65 -66,105l-1 329c-6,36 -13,16 -14,69l0 585c-5,46 -10,12 -15,59 -7,70 18,278 -10,322l-25 -2c-23,-51 -28,-503 -13,-570 9,-39 4,-40 7,-80 4,-56 11,-8 17,-67l0 -255c2,-41 9,-33 12,-68 4,-47 5,-214 -11,-240 -29,-2 -32,16 -48,43 -38,63 -37,48 -55,72 -12,16 -13,33 -26,51 -29,41 -10,-12 -64,89l-91 137c-122,136 -58,141 -34,339z"/>
   <path class="fil5" d="M12581 14125c21,-31 36,-67 58,-94l51 -68c15,-26 13,-68 -6,-113l-12 -41c-11,-80 -20,-175 -41,-254 -22,-82 -7,-62 -18,-134 -3,-25 -14,-35 -19,-56 -7,-26 -1,-44 -7,-70 -8,-34 -19,-90 -26,-130l-15 -135c-4,-37 -10,-24 -13,-68 -3,-55 0,-104 -18,-156l-5 -12c-16,-49 -2,-118 -7,-171 -4,-40 -9,-25 -12,-68 -2,-24 0,-53 0,-77 -1,-42 -4,-34 -10,-62 -5,-24 -3,-48 -3,-73 1,-25 2,-53 1,-77 -1,-31 -9,-45 -12,-68 -6,-39 -1,-111 -1,-153 0,-61 -16,-66 -15,-135 1,-33 2,-43 -6,-69 -19,-61 -6,-153 -10,-219 -2,-37 -8,-32 -11,-67l14 -557c8,-31 2,1 9,-24 10,-38 13,-139 -14,-171 -19,-22 -47,-17 -74,-37 -47,-35 -129,-66 -147,-81l-69 -72c-58,0 -57,15 -98,34 -45,20 -56,11 -96,17 -73,12 -96,-17 -151,-34 -93,-28 -140,-43 -166,-147l-35 -149c-3,-31 3,-25 -7,-54 -52,-18 -88,72 -208,7 11,-111 82,-182 53,-333 -9,-48 -7,2 -15,-44 -3,-16 -1,-41 -1,-58 -16,-87 -187,-29 -237,-32 -39,-3 -38,-14 -93,-14 -91,-1 -202,18 -287,-8 -32,-10 -117,2 -160,-32 2,-28 12,-32 27,-56l55 -81c2,-2 6,-9 7,-11 38,-63 22,-61 43,-116 32,-83 16,-117 31,-203 7,-22 -4,-3 15,-15l11 -5 10 -4c-18,-44 7,-94 -52,-116 -37,-13 -25,-3 -61,-24 -58,-34 -134,-36 -197,-57 -166,-56 -169,-20 -283,-55l-131 -40c-73,-33 -63,46 -50,86l46 122c15,32 7,36 15,71 4,20 13,42 20,63 36,113 -9,85 99,158 77,51 75,80 132,121 68,49 205,186 242,267 19,43 36,80 38,130 56,-21 52,-3 77,34 31,46 92,78 123,130 18,30 30,37 55,64 30,32 66,58 92,94 38,53 99,108 147,157l160 187c44,50 91,85 130,141 34,48 83,82 122,123 48,50 22,136 44,202 9,24 11,135 29,217l31 276c3,49 3,12 12,45l15 108c3,19 0,39 2,58l23 170c6,58 20,19 20,93 0,69 15,153 30,216 11,49 1,78 8,121l20 96c12,25 16,3 21,49 6,58 -1,105 14,158 29,-9 95,-147 114,-187 17,-36 23,-28 36,-57 11,-22 3,-12 16,-35l58 -95c24,-60 32,-52 55,-97 69,-136 99,-121 58,-233 -16,-44 -15,-26 -36,-57 -33,-49 -106,-129 -129,-176l-236 -297c-33,-37 -37,-70 -9,-112l228 -366 19 -31 74 -121c10,-16 10,-13 22,-30 21,-29 15,-41 51,-40 16,38 9,20 -7,42l-99 164c-57,97 -122,179 -172,277l-20 31c-27,39 -67,92 -78,134 38,24 73,86 98,121l27 41c25,26 13,10 33,41 14,23 15,19 30,39l56 79c16,19 19,27 32,44l122 166c98,130 85,109 58,152 -33,53 17,7 -45,81 -32,38 -111,185 -130,225l-61 109c-20,47 -38,70 -57,122 -17,47 -59,61 -33,122 17,40 44,78 64,114l212 397c32,68 77,126 110,195 25,51 41,60 47,80l55 114c10,18 20,43 29,64 23,53 87,105 75,172 -22,-1 -50,-28 -61,-42 -17,-21 -20,-50 -33,-77 -10,-23 -12,-22 -21,-37l-74 -146 -3 -6 -197 -373c-17,-29 -30,-27 -44,-62 -29,-74 -73,-137 -107,-207 -12,-25 -23,-50 -35,-76 -13,-29 -20,-46 -48,-55 -34,87 5,141 21,217 9,43 -3,83 16,120 14,28 27,60 29,96 6,121 30,106 42,163 9,45 8,68 28,116l12 37c17,115 12,42 28,100 10,36 12,70 26,109 11,30 22,55 33,92l212 581c29,-16 48,-59 70,-87l123 -180c17,-17 16,-21 31,-45 15,-22 20,-28 32,-45z"/>
   <path class="fil1" d="M12644 13336c17,102 92,449 92,520 34,-2 28,-2 46,-35 17,-30 4,-15 27,-40l319 -459c1,-1 2,-3 3,-5l65 -98c18,-28 34,-50 54,-80l167 -240c31,-35 82,-126 108,-163 19,-26 35,-47 57,-78l7 -10c1,-2 3,-4 4,-5l47 -67 0 -1c-23,-53 -31,-193 -41,-234 -25,-98 -12,-50 -29,-172 -5,-31 -9,-40 -12,-85l-26 -161c-1,-17 1,-34 -1,-50 -6,-45 -4,-7 -12,-38 -7,-30 0,-56 -6,-87l-21 -164c1,-99 -26,-118 -30,-153 -4,-29 3,-59 -3,-91 -26,-143 3,-155 -11,-280 -3,-24 -18,-55 -21,-71 -11,-52 5,-47 8,-83 9,-98 -142,-38 -197,-34 -85,6 -263,58 -437,24 -15,-3 -56,-10 -78,-16l-153 -34c-37,-11 -32,-14 -77,-13 -14,113 -3,292 -3,413l0 203c0,140 3,89 12,195 11,126 -12,471 7,526l13 65c24,179 1,317 47,571 6,34 -1,67 3,99 7,52 9,-11 16,85l56 346z"/>
   <path class="fil2" d="M10583 13042c7,-44 15,-11 15,-44 0,-53 13,-149 -36,-128 -6,2 -30,29 -38,37 -25,25 -59,47 -87,66 0,26 -4,48 5,71l3 6 65 104c4,7 4,8 3,7 1,1 2,2 3,4 3,4 1,20 39,29l1 -1 27 -151z"/>
   <path class="fil6" d="M6359 14490c-39,-41 -52,-44 -81,-88l-14 -20c-9,-11 -3,-2 -11,-13l-46 -73c-67,-85 -22,-52 -93,-133 -74,18 -229,217 -312,286 -56,47 -209,221 -219,228 -2,2 -6,3 -16,10 -85,60 -88,57 -152,121l1082 0c75,-64 129,-49 85,-185 -38,-12 -45,-22 -80,-38 -80,-38 -77,-24 -143,-95z"/>
   <path class="fil6" d="M7809 12702c1,0 2,1 0,0zm328 378c65,56 -10,8 113,82 47,28 33,26 92,42 49,13 19,25 86,41 52,12 53,29 97,40 20,5 29,2 50,8 55,16 159,46 216,48 146,5 54,17 187,16 20,0 38,-1 57,3 105,20 119,-2 178,20 3,-31 -57,-150 -79,-179 -32,-43 -23,-66 -100,-179 -63,-93 -116,-126 -172,-260 -27,-63 -107,-159 -123,-207l-15 -37c-46,-74 -29,-31 -51,-120 -23,-93 -62,-68 -153,-71 -43,-42 -6,-32 -75,-42 -53,-8 4,-2 -87,-38 -87,-34 -89,-40 -160,-94 -19,-15 -49,-47 -58,-60 -46,-67 -15,-21 -59,-69l-55 -71c-30,-35 -49,-23 -47,-80 66,-3 24,11 75,53 19,15 137,176 226,230 19,12 27,15 43,25 69,42 123,45 194,75 49,22 122,54 146,-10 -44,-34 -64,-25 -92,-41 -21,-12 -20,-17 -38,-28 -22,-13 -43,-13 -56,-22 -39,-26 4,-12 -34,-34 -22,-12 -20,0 -47,-28 -69,-71 -58,-36 -138,-141l-31 -36c-27,-35 -29,-18 -51,-58 -48,-89 -56,-51 -105,-151 -4,-9 -50,-71 -56,-79 -13,-16 -20,-17 -32,-35 -10,-16 -19,-34 -28,-48 -58,-91 -58,-177 -76,-230l-9 -152 42 -263c0,-83 1,-56 15,-66l-1 -1c-4,-51 10,-70 29,-112l67 -221c6,-65 9,-51 43,-92 0,-59 12,-51 -26,-83 -48,15 -67,62 -77,80l-83 190c-65,159 -57,293 -70,336 -1,2 -1,4 -2,6 -1,3 -1,5 -2,7 -18,46 14,27 -29,33 0,-63 24,-236 47,-309l64 -175c65,-179 35,-84 80,-156 20,-33 26,-35 54,-54 1,-50 11,-116 -17,-150 -37,1 -22,6 -48,32 -36,35 -30,1 -68,59 -13,19 -4,7 -19,24 -14,16 -22,26 -36,40 -42,42 -57,47 -93,101 -1,1 -2,3 -3,5l-55 72c-80,89 -210,321 -223,432 -4,31 -12,34 -22,59 -10,23 -15,45 -18,70 -16,117 -66,56 -44,449 3,60 11,24 16,68 5,34 0,46 7,80l54 311c2,13 3,25 6,37 8,37 13,11 15,62 -5,18 -61,45 -96,77 -30,28 -57,53 -69,101 -25,99 -21,138 7,215 9,27 12,40 25,59 15,21 20,29 31,52 54,110 126,109 203,136 52,18 91,11 158,10 61,0 60,-1 63,12 8,4 12,5 14,6 -2,0 -4,0 3,6l16 19c63,93 37,64 117,163l150 163c23,19 19,7 42,27zm435 -675c-38,7 -123,-12 -164,-25 -52,-16 -94,-35 -137,-66l-112 -84c24,-41 28,-26 61,-2 81,59 123,90 228,119 31,8 104,13 123,26l1 32zm-816 -1295l76 269c-43,5 -45,-27 -57,-69 -30,-100 -28,-44 -59,-202 -26,-134 -21,-67 -21,-199l-1 2c0,-48 15,-28 16,-84 1,-28 6,-154 20,-170 20,-24 36,3 36,34 0,69 -19,-12 -18,101 1,54 -36,204 8,318z"/>
   <path class="fil6" d="M9241 12754l2 59c33,15 42,-18 84,118 8,27 9,11 24,45 20,44 -2,21 42,41 6,72 -3,28 30,65 23,25 -3,14 37,56 32,33 38,63 62,97l8 10c42,-40 62,-133 81,-165 6,-10 42,-49 55,-62 29,-28 33,-23 56,-61 203,-6 207,134 257,165 53,-17 30,-74 102,-137l-4 -2c-21,-115 115,-124 194,-102 38,11 21,-1 47,22 24,21 50,33 65,60 27,-16 88,-75 110,-100 32,-36 64,-70 106,-93l-10 -139c-6,-23 -3,-23 -4,-47 -2,-39 -11,-47 -15,-85l-39 -212c-14,-75 -54,-126 -54,-204 -59,-8 -125,7 -176,-16l-95 -59c-28,-28 -160,-142 -167,-177 34,-15 18,-14 48,16 160,160 173,218 375,200l0 -185c-45,-6 -84,0 -128,-3 -52,-3 -46,-28 -88,1 5,12 -2,-1 12,11l40 34c27,19 50,17 65,42 -35,19 -49,-3 -71,-17l-74 -53c-67,-43 -54,-57 -97,-83 -56,-34 -188,-158 -215,-199 -5,-9 -9,-26 -19,-39l-50 -52c-54,-65 -136,-108 -183,-182l-41 -60c-53,-69 -84,-241 -83,-332 0,-37 7,-61 12,-92l11 -46c1,-3 1,-5 2,-7l40 -102c12,-33 1,-11 16,-36 1,-1 18,-28 20,-31 49,-71 76,-216 110,-304l5 -12 7 -27c12,-46 46,-94 64,-139 26,-65 79,-191 149,-207 -3,-40 -16,-71 -25,-108l-119 10c-18,29 -29,26 -44,72 -10,33 -15,57 -31,88 -39,73 -68,221 -98,318l-15 43c-11,28 -23,59 -30,87 -9,36 3,63 -44,59 0,-5 19,-76 22,-86l58 -173c9,-25 15,-61 21,-87 7,-32 14,-62 25,-93l99 -242c-30,-17 -55,-14 -92,-28l-477 -105c-43,-3 -190,-4 -225,3 -124,25 -238,62 -352,112 -16,7 -307,117 -316,146 -16,52 12,127 13,186 130,14 209,41 317,106l105 64c32,23 20,-1 41,33 -7,4 3,11 -29,5l-236 -135c-31,-17 -25,-10 -60,-18 -121,-26 -140,-50 -137,82 46,-17 58,-14 95,4 56,28 202,63 208,131 18,6 21,6 35,15 43,29 39,59 107,106 39,27 65,104 137,159l19 15c1,1 3,2 5,3 58,39 127,124 161,178 75,120 122,307 87,445 -4,16 -3,19 -6,36 -16,97 -23,111 -67,189 -68,122 -31,61 -38,219 -2,62 -9,16 -16,67 -4,29 2,48 -5,79 -22,90 -54,155 -113,225 -27,32 -35,72 -85,84 2,1 4,3 5,4l63 49c42,-33 68,-62 103,-110 21,-29 5,-1 22,-37 4,-9 15,-28 17,-33 43,-90 44,-193 72,-284l9 -51c15,-77 30,-60 39,-63 10,15 7,-15 9,27 1,22 -6,20 -13,59l-60 274c-15,58 -34,109 -70,149l-65 79c-8,9 -3,3 -13,13 -9,8 -17,18 -25,26 11,35 0,0 20,32 45,71 63,60 124,186 27,55 57,84 68,111l26 51c24,37 11,41 49,51zm536 -269c-27,37 4,26 -35,33 -49,-40 6,-50 30,-89l71 -81c45,-42 56,-51 101,-52 49,-2 104,-12 109,42 -127,18 -105,-31 -193,52 -14,13 -20,14 -30,29l-53 66zm88 -318c-79,63 -117,108 -189,175 -113,106 -113,146 -181,293 -15,33 -21,47 -34,85 -22,65 -52,29 -47,-3l36 -85c42,-77 30,-80 92,-189l6 -11c23,-44 22,-33 49,-68 39,-51 57,-83 120,-125l159 -137c13,-6 86,-19 103,-20 101,-7 133,1 182,59 18,21 31,51 48,70 25,26 7,-9 26,33l38 83c11,26 66,79 45,123l1 2c-50,-13 -42,-52 -94,-126 -24,-35 -26,-58 -51,-93 -1,-2 -3,-4 -4,-5l-41 -60c-56,-81 -205,-49 -264,-1zm-173 -218c-50,18 -119,2 -163,-26l-10 -7c-1,-1 -3,-2 -5,-3 -1,-1 -3,-2 -5,-3 -19,-13 -20,-16 -35,-32 -7,-8 -9,-10 -17,-16l-21 -15c21,-14 1,14 18,-14 34,5 21,12 69,48 121,89 171,56 226,-44 39,-71 -2,-122 -31,-168 -87,-138 -91,-83 -102,-126l-2 -2c11,-13 32,0 32,0 55,27 54,40 70,68 19,32 57,72 70,116 27,90 -43,206 -94,224zm-44 -1945c4,56 -23,45 -44,78 -104,163 -21,259 -90,282 -30,-39 4,2 4,-109 0,-73 17,-107 44,-155 10,-17 11,-25 20,-39 51,-74 40,-60 66,-57zm-932 188c-26,-17 -14,1 -35,-29l-2 0 17 -29c39,0 66,54 107,87 16,13 23,11 42,27 26,21 37,49 60,75 10,11 21,20 32,37 60,90 95,134 157,241 38,65 65,86 68,134 -53,-5 -48,-32 -75,-68l-99 -164c-46,-77 -205,-268 -272,-311zm345 2145c-1,1 -3,3 -5,4 -24,15 -4,16 -46,11 -4,-70 111,-44 158,-221 11,-41 7,-76 51,-91 16,37 -1,75 -15,112 -10,24 -10,21 -18,45 -7,22 -2,10 -9,27 -20,46 -75,87 -116,113z"/>
   <path class="fil7" d="M8827 12201c29,-37 74,-78 106,-114 39,-44 55,-86 69,-151 4,-20 5,-35 9,-52l15 -94c7,-20 14,-9 17,-32 5,-32 -49,-27 -73,-15 -11,6 -19,23 -100,62l-115 47c-80,22 -200,47 -282,35l-177 -42c-43,-16 -25,-26 -80,-26 4,59 70,117 109,158 14,15 19,18 37,32l28 30c45,44 136,108 194,129 49,18 55,57 145,31 75,-22 45,-3 98,5l0 -3z"/>
   <path class="fil7" d="M8453 10561c121,-31 291,37 319,37 12,-47 -30,-66 -61,-98l-84 -91 -1 1c-29,-11 -26,-25 -54,-42 -20,-12 -44,-17 -66,-27 -47,-22 -7,-28 -68,-30 -29,-1 -65,0 -94,1 -19,31 -14,51 -25,82 -4,11 -15,27 -19,37 -6,17 -4,25 -10,42 -15,14 -66,40 -81,46 -16,-4 -15,-6 -18,-7 -89,-35 -63,-58 -125,-44l-40 146c-23,123 -34,93 -44,135 -10,42 11,76 -28,83 -15,27 -6,4 -12,37 115,-53 77,-91 159,-145 51,-33 34,-42 110,-86 105,-60 129,-48 242,-77z"/>
   <path class="fil8" d="M7824 10189c62,-49 17,-29 67,-60l16 -10c16,-8 2,-2 17,-8 21,-8 18,-1 40,-13 20,-199 -25,-159 -25,-331 0,-42 -11,-62 -15,-101l-43 -318c-20,-55 -18,-11 -28,-89 -64,3 -55,36 -90,53l-161 112c-22,25 -17,14 -36,30l-31 38c-18,22 -18,15 -38,28 -49,31 -68,80 -97,108 -56,53 -48,35 -78,58 -25,19 -94,127 -112,158 -29,49 3,41 -47,88 -30,28 -31,48 -46,89l-76 104c-95,127 -7,30 -74,153l-62 141c-1,2 -1,4 -2,6l-28 65c0,2 -1,4 -2,6 -52,123 -20,14 -30,142 -3,45 -7,15 -12,52 -3,28 13,68 13,117 -1,45 -2,91 -1,136 1,54 14,65 14,126l12 325c6,21 9,43 13,57 19,74 69,161 110,225 12,18 14,31 23,46l193 281c10,13 18,26 27,39 32,49 19,50 59,77 27,-10 38,-27 56,-45 45,-46 48,-5 56,-39l-34 -139c-43,-169 -50,-11 -50,-285 0,-125 -13,-126 -13,-161l0 -166c0,-19 69,-346 89,-380l86 -259c21,-76 22,-26 57,-115l11 -23c1,-2 6,-8 7,-10 1,-1 2,-3 3,-5 14,-22 7,-24 32,-49 57,-58 23,-53 64,-82l81 -88c19,-36 -6,-12 25,-34l60 -50z"/>
   <path class="fil5" d="M8230 10678c-59,32 -81,64 -110,85 -19,14 -8,-3 -27,31 -32,58 -20,-1 -49,63 -27,61 -51,55 -78,153 -12,42 -8,11 -30,43 -19,28 -11,67 -18,99 -7,34 -9,32 -9,70 -1,98 31,226 83,308l17 25c2,1 3,3 4,5l45 57c27,27 12,22 31,45 23,26 21,10 46,31 39,32 8,36 140,97 51,24 64,20 125,30 84,13 14,12 138,12 77,0 201,-12 267,-47 143,-77 81,-57 137,-93 77,-50 153,-180 183,-274l14 -36c5,-11 2,1 7,-19 32,-131 13,-283 -44,-400 -53,-109 -31,-68 -92,-136 -22,-25 -8,-23 -31,-45l-92 -70c-69,-42 -104,-72 -207,-97 -40,-10 -274,-9 -302,6l-2 0c-8,4 -104,34 -146,57zm381 530c-24,-11 -22,-25 -29,-37l-1 0c0,-65 50,-62 86,-61 31,34 23,15 25,80 -21,17 -41,36 -81,18z"/>
   <path class="fil5" d="M9588 11086c10,66 47,160 94,206 6,6 13,13 20,22l13 21c54,85 220,176 318,196 136,27 64,9 201,2 55,-3 14,-2 51,-21 28,-14 35,-4 66,-10l68 -26c2,0 4,-1 6,-2 87,-33 35,4 85,-35 84,-66 86,-67 137,-160 15,-27 20,-13 31,-44 15,-43 -12,-17 22,-55 15,-17 21,-19 24,-43 4,-30 -4,-42 6,-70 18,-50 19,-15 31,-44 8,-19 6,-114 1,-137l-9 -24c-16,-36 -26,-50 -29,-89 -7,-90 -108,-216 -174,-267 -26,-19 -62,-45 -89,-63l-222 -75c-46,-8 -75,11 -133,11 -101,-1 -66,-7 -129,20 -31,13 -78,27 -101,43 -207,149 -90,63 -195,178 -81,88 -131,314 -108,407l1 0c6,23 5,-6 11,28 2,11 1,20 3,31zm659 -201c70,123 -199,91 -71,-15l0 1c16,-13 -22,-6 23,-12 21,-3 38,8 48,26z"/>
   <path class="fil7" d="M9724 10464c94,8 41,-5 132,-56 98,-55 254,-90 368,-80 45,4 18,9 68,15 48,6 140,32 103,-41 -28,-56 -61,-84 -74,-106 -1,-2 -8,-15 -9,-16 -6,-9 -8,-10 -12,-14 -49,-58 -47,-68 -101,-120 -22,-22 -21,-20 -51,-35 -28,13 -15,38 -119,29 -63,-6 -57,-33 -93,-41 -33,25 -82,111 -96,154 -7,19 -15,35 -26,58 -8,15 -7,16 -13,29 -31,70 -36,103 -67,187 -4,10 -6,22 -10,34l0 3z"/>
   <path class="fil7" d="M10269 11576c-155,31 -231,-17 -328,-17 1,50 8,48 38,68l107 96c19,21 7,5 28,22 43,35 1,12 63,40 64,28 45,35 117,24 43,-7 65,20 183,6 29,-50 1,-53 65,-90l97 -54c1,-28 -3,-73 3,-98 6,-22 65,-175 30,-219 -33,11 -104,112 -212,166l-83 34c-30,10 -72,15 -108,22z"/>
   <path class="fil6" d="M10969 11839c-24,100 -24,11 -44,152 -5,35 -18,37 -22,69 -3,26 -1,63 3,88l0 1c44,12 18,15 54,-4l29 -14c38,-21 83,-128 88,-148l16 -99c2,-118 5,-58 12,-120 7,-65 -33,-170 -69,-228 -26,-42 -8,-24 -25,-29 -13,39 -19,122 -26,165 -10,64 1,97 -16,167z"/>
   <path class="fil6" d="M10922 11813c6,-39 7,-35 14,-63 14,-51 36,-275 31,-316l-101 -523c-29,-142 -49,-126 -60,-153 -7,-18 -2,-34 -9,-59 -10,-38 -15,-26 -30,-57l-34 -91c-6,-13 -17,-32 -23,-46 -6,-14 -3,-10 -10,-24l-96 -151c-14,-25 -7,-20 -34,-33 -31,21 1,25 -42,42 -19,-11 -44,-87 -67,-126 -18,-32 -51,-78 -77,-109 -22,-26 -16,-31 -35,-58 -13,-18 -32,-37 -44,-49 -20,-20 -80,-70 -104,-78l-1 0c-10,17 -26,34 -14,60 12,27 43,23 87,84 70,98 123,132 170,228 26,53 44,63 59,100 16,39 1,17 31,37l79 81c10,15 33,30 84,103l7 10c25,35 28,35 42,76 10,27 0,7 13,30 64,120 48,347 5,451 -11,26 -17,32 -18,68 -2,104 -14,137 -41,236l-46 226c83,6 51,-36 83,-112 16,-40 5,-11 23,-35 44,-59 28,-177 50,-207 26,15 9,-12 17,28 11,50 -13,105 -23,146 0,1 -6,24 -7,25l-28 51c-21,44 -51,142 -50,185 85,-5 59,9 73,-13 21,-32 -13,-59 19,-82 24,12 13,-15 18,34 10,94 -86,99 -31,183 53,80 21,61 41,101 13,27 -6,16 22,23 4,-13 12,-54 14,-63 16,-67 29,-72 43,-160z"/>
   <path class="fil8" d="M9747 9722c113,59 59,15 179,36 -2,-51 -15,-20 -17,-86 -2,-71 -30,-142 -48,-208 -17,-64 -21,-83 -52,-141 -16,-30 0,-21 -19,-57l-29 -47 -38 -58c-52,16 -44,13 -101,-1 -32,-8 -12,2 -38,-18 -5,-4 -28,-20 -29,-20l-76 -33c-66,-23 -124,-20 -127,66 -4,104 -26,81 -57,146 -18,38 -9,29 -47,47 -102,49 -90,48 -194,12 -20,-7 -20,-4 -40,-10 -50,-15 -15,-18 -60,-36 -29,15 -30,17 -40,46 -20,55 -44,78 -94,103 -65,33 -73,42 -145,42 -107,0 -139,-24 -207,-74l-14 -12c-22,-20 -52,-59 -65,-87 -19,-41 -7,-56 -32,-86 -8,-10 2,6 -8,-8 -24,-31 -15,-71 -36,-101 -11,-16 1,-7 -16,-13l0 99c-3,18 -32,31 -33,30 -1,-2 -5,2 -7,4l-4 -1c-1,106 -5,64 11,154 8,49 -1,88 10,140l34 205c0,27 -2,45 3,73l102 -1c53,-56 -9,-20 72,-46 78,-24 122,-31 177,-60l382 -82c118,1 187,-16 221,-14 49,3 51,14 110,14 103,0 194,15 287,58 40,19 35,-1 85,25z"/>
   <path class="fil8" d="M10230 9783c9,95 -5,54 37,118l64 78c15,15 20,9 43,34 31,33 11,12 43,34l143 163c7,11 23,33 31,44 23,30 24,25 35,26 13,-22 4,-20 0,-56 -6,-58 1,-24 -16,-58 -17,-34 -10,-27 -6,-66 5,-40 -6,-71 -14,-101l-5 -21c-12,-43 -6,-11 -27,-47 -25,-44 -5,-54 -47,-98l-100 -128c-21,-21 -20,-15 -37,-39 -29,-40 -16,-14 -77,-76 -10,-10 -67,-56 -81,-60l0 2c-9,86 27,65 14,131 -9,46 -21,1 -17,60 4,58 11,-3 17,60z"/>
   <path class="fil4" d="M8900 8892l-42 -161c0,-24 -3,-13 6,-27 43,30 79,227 79,268l0 119c0,45 -15,45 -12,102 39,19 25,5 46,39l97 80c99,52 131,9 187,-43 77,-71 51,-227 51,-380 0,-33 -11,-48 -12,-119 -1,-48 -24,-85 -4,-127 37,-35 123,78 146,100 13,12 17,20 29,30 19,17 22,12 42,27 48,37 90,92 124,139 33,45 49,46 115,148l49 85c32,58 65,171 84,239l95 368c19,61 25,157 51,213 189,13 146,-183 146,-390 0,-45 -20,-49 -30,-92 -8,-36 -13,-77 -20,-106 -10,-42 -22,-60 -31,-94 -11,-37 -15,-66 -24,-104l-42 -135c-9,-30 -6,-25 -18,-51 -87,-185 -83,-196 -202,-356l-305 -389c11,-40 11,-7 13,-53l-160 -89c-19,-9 -38,-17 -57,-28 -102,-59 -360,-159 -490,-166 -58,-3 -93,-9 -153,-11 -78,-3 16,-13 -152,-18 -30,-1 -45,-8 -68,-11 -47,-6 -109,2 -154,19 -20,8 -37,16 -60,21 -70,15 -123,39 -186,63 -126,49 -266,142 -321,264 -15,33 -51,88 -51,119 0,64 -8,142 5,204 1,2 1,4 2,7 1,2 1,4 2,7 10,49 30,71 56,96l74 52c38,28 45,20 52,113 3,42 11,111 22,144 15,44 15,92 22,141 26,170 61,322 79,494l94 489c18,80 53,374 175,287 28,-20 25,-24 33,-55 23,-91 15,-186 15,-281 0,-60 -11,-11 -15,-68 -3,-29 2,-64 0,-93 -2,-43 -10,-36 -12,-76 -2,-31 3,-62 -2,-92 -5,-32 -11,-32 -11,-77 0,-53 -2,-43 -11,-79 -8,-31 -1,-59 -5,-89 -5,-36 -13,-21 -14,-77 0,-42 0,-40 -8,-79 -7,-34 -2,-57 -5,-90 -3,-33 -11,-25 -12,-68 -1,-37 3,-54 -5,-90 -8,-39 -7,-38 -7,-80 -1,-45 -11,-30 -17,-76 -5,-36 3,-43 -8,-83 -10,-35 -13,-45 6,-75 37,-6 76,47 108,80l203 203c24,22 35,23 59,43 20,16 32,31 28,64 -51,6 -75,-42 -101,-68 -32,-32 -61,-71 -100,-91 -66,79 -8,62 0,113 14,85 -6,56 41,148 24,46 43,69 93,92 74,34 171,38 251,38 38,0 51,-8 72,-39 55,-82 77,-179 78,-275 1,-98 31,-87 -3,-207zm-110 -424c64,-73 -24,-134 -9,-165 25,-51 52,42 62,59 34,59 16,80 -19,131 -20,30 -14,43 -61,36 -2,-49 4,-34 28,-61l-1 0zm370 1c-25,-60 67,-80 -25,-153l-40 -33 13 -27c35,5 34,10 58,37 17,20 27,23 42,52l0 -1c21,39 3,82 -16,107 -17,23 -10,15 -32,18zm-992 -42c63,2 72,127 45,172l-1 0 -73 2 -3 -42c34,-3 29,2 53,-13 -4,-45 -39,-84 -21,-119z"/>
   <path class="fil5" d="M11538 7938c64,137 139,243 267,324l21 14c84,57 159,84 256,101 103,17 48,16 169,14l229 -41c35,-18 -2,-13 57,-28l179 -89 153 -211c91,-162 116,-324 65,-505 -9,-30 -11,-46 -21,-76 -25,-71 -120,-223 -183,-265 -48,-32 -34,-33 -86,-66 -54,-35 -144,-81 -198,-98 -63,-20 -256,-53 -324,-24 -36,15 -102,5 -231,73 -59,31 -96,50 -137,92 -39,40 -26,-10 -119,118l-52 75c-76,162 -44,48 -77,225 -14,74 -16,29 -14,137l46 230zm986 -222c-64,55 -162,-24 -95,-95 36,-38 57,-17 100,-8 7,38 34,69 -5,103z"/>
   <path class="fil5" d="M13631 7544c29,23 39,116 -39,121 -85,6 -108,-102 -16,-135l55 14zm-498 28c0,179 39,346 173,480 19,19 46,49 68,67l83 61c18,9 30,12 47,21 155,78 243,54 417,54 25,0 209,-64 247,-97 22,-19 18,-14 43,-32 15,-11 57,-54 73,-71 80,-87 125,-184 160,-295l6 -35c20,-155 0,-84 1,-135 2,-47 18,21 -2,-94 0,-3 0,-5 -1,-8 0,-2 0,-4 -1,-7 -5,-22 -5,-17 -6,-20 -33,-104 -65,-188 -147,-270 -34,-34 -113,-112 -155,-133 -11,-6 -17,-8 -29,-13 -85,-39 -7,-16 -116,-45 -23,-6 -40,-14 -64,-18 -142,-21 -170,-22 -307,9 -55,12 -66,16 -113,41 -82,44 -144,92 -205,160l-8 8 -4 4 -30 38c-41,52 -94,137 -102,204 -16,124 -27,51 -27,126l-1 0z"/>
   <path class="fil9" d="M14634 6569c1,2 0,1 0,0zm-210 1404c0,16 13,68 13,178 0,47 5,97 -4,142 -37,181 7,165 101,225 58,37 94,101 127,161 13,24 14,24 29,45 15,-11 12,-14 27,-26l212 -144c1,-1 3,-2 5,-3 106,-69 223,-106 343,-149 17,-6 30,-9 49,-18 -1,-80 -68,-64 -170,-151 -11,-10 -5,-6 -18,-15 -23,-17 -51,-27 -71,-48l-248 -278c-30,-43 -91,-111 -93,-164l166 -262c1,-1 2,-3 3,-5l45 -55c13,-14 29,-31 43,-49l48 -46c19,-15 27,-25 43,-42l267 -198c29,-21 91,-60 104,-88 -31,-59 -97,-34 -155,-46 -95,-20 -169,-42 -251,-88 -27,-16 -5,-5 -29,-22l-33 -17c-35,-16 -59,-41 -89,-63 -19,-14 -39,-27 -56,-38l-183 -131c-1,-1 -4,-2 -5,-3 -8,-6 -10,-7 -10,-6 -1,-1 -2,-3 -4,-6 -34,-43 31,-133 50,-178l244 -553c41,-86 34,-95 96,-200l198 -302c25,-29 29,-24 24,-74 -36,3 -36,12 -58,23 -40,19 -103,26 -144,43 -65,28 -16,6 -60,3 -14,-1 -102,30 -184,42l-129 11c-49,7 -7,9 -68,16l-31 4c-2,1 -4,1 -6,2 -64,18 -152,11 -216,21l-132 30c-62,23 -87,40 -152,19 -1,-80 12,-43 18,-90 3,-18 0,-39 2,-58 4,-34 8,-20 11,-60 6,-80 -13,-172 5,-248 15,-64 29,-219 45,-268 21,-62 19,-114 19,-179 0,-85 14,-223 -7,-301l-67 -255c-20,-69 -103,-226 -105,-277 -15,7 -32,10 -55,16 -33,138 -18,70 -80,182 -14,25 -9,16 -23,37 -16,24 -24,48 -37,74l-213 320c-19,28 -26,30 -49,62l-411 453c-57,37 -64,69 -107,112 -18,18 -31,29 -51,51 -67,72 -112,3 -159,-43 -24,-23 -10,-12 -24,-36 -45,-75 -167,-149 -213,-219 -65,-100 -327,-331 -426,-437l-236 -196c-38,-22 -31,-27 -58,-51l-23 -20c-94,-56 -43,-22 -89,-83 -19,-25 -20,-9 -27,-11 -39,-10 -51,-60 -78,-78l-300 -242c-84,-63 -40,43 -30,97l76 357c32,117 49,240 73,358 6,27 13,76 16,97 9,59 26,132 28,194 2,53 17,48 17,93l0 347c0,39 -8,15 -13,52l3 -2 -13 87c-4,15 -3,14 -5,29 -5,30 -6,24 -11,53 -7,41 -13,73 -23,115 -23,94 20,22 22,106l-315 28c-68,-1 -99,15 -161,15 -99,0 -148,12 -161,12 -128,0 -409,16 -531,-16 -33,-8 -11,-9 -62,-12 -33,-2 -48,-9 -77,-12 -96,-11 -184,-40 -282,-37 9,38 8,19 24,50l76 137c56,77 142,241 189,301l66 95 6 11c8,13 7,13 16,26l77 110c1,1 2,3 3,5l287 408c6,9 8,13 14,21 1,2 3,4 4,5l117 162c26,37 45,47 -3,79l-252 155c-52,23 -151,55 -214,64 -24,3 -30,2 -54,7 -80,15 -243,15 -304,41 -29,12 -159,11 -206,22 -221,50 -144,8 -318,115 -5,3 -15,8 -19,10 36,41 115,57 165,85l181 83c61,21 33,12 74,51 27,25 39,24 71,56l76 59 5 4 50 36c15,11 4,1 19,14 126,105 344,216 496,274 33,12 56,30 85,41 65,25 50,4 63,76l-133 192c-25,28 -62,56 -79,81 -18,27 -2,23 -33,44l-98 79c-12,9 0,-1 -14,11l-229 169c-36,27 -103,57 -91,106 13,52 63,46 107,55 106,21 248,40 349,76 76,27 165,42 235,69 38,15 78,26 123,39l34 10c45,18 73,43 59,90l-25 116c-8,94 -38,159 -68,239l-8 19c-20,39 -89,116 -86,152 88,10 186,0 276,2 54,1 45,11 93,14 104,5 234,-18 335,10l34 5c1,119 46,248 15,373 -8,32 -28,84 -25,113 65,8 155,-6 175,-73l33 -111c10,-39 -18,-138 -19,-185 -46,-27 -18,28 -32,-75 -7,-51 -26,-58 -34,-95 -17,-77 21,-58 -91,-87 -44,-12 -15,-23 -80,-37 -65,-14 -30,-8 -110,-50l-53 -39c-33,-31 -65,-78 -85,-120 -85,-179 -62,-157 -62,-360 0,-41 25,-84 45,-116 46,-73 74,-121 153,-168 107,-64 62,-79 61,-181 0,-34 2,-69 1,-103 -1,-34 -11,-53 -13,-84 -6,-99 12,-202 -8,-299 -17,-83 -4,-312 -4,-412 0,-96 9,-111 -14,-197 -10,-36 -13,-391 -3,-463 7,-48 1,-7 13,-39 9,-24 18,-54 24,-78 27,-108 47,-213 90,-317l3 -6 92 -211c62,-109 246,-259 357,-339l137 -100c8,-5 17,-24 40,-36 0,0 17,-7 18,-7 87,-33 132,-104 258,-147 13,-5 20,-9 36,-16 52,-24 139,-56 195,-65 228,-37 364,-26 601,-26 67,0 138,-2 204,0l222 39c40,10 82,15 118,34 113,59 240,90 328,188 22,24 34,33 56,55 25,25 119,147 126,177 17,75 36,177 -39,222l-36 25c14,15 20,39 31,62 99,212 93,286 139,504l30 218c3,53 40,98 76,126 25,19 25,71 40,102 45,95 50,208 50,314 0,45 -10,17 -15,68l-41 147c-14,30 -29,46 -29,81z"/>
   <path class="fil9" d="M14851 9144c-26,-26 -125,-136 -156,-149 -51,74 -29,112 -106,198 -100,111 -69,38 -31,186 4,18 18,117 17,133l-25 92c-10,23 -34,63 4,77 38,14 18,-6 58,-12 23,-4 51,1 75,-2 28,-4 26,-9 51,-18l-57 -166c-22,-47 -54,-99 -50,-156l366 -3 11 -33c-9,-18 -3,-8 -18,-24 -8,-9 -10,-8 -18,-16l-121 -107z"/>
   <path class="fil4" d="M14614 9068c72,-147 49,-301 -22,-444 -25,-52 -108,-114 -155,-106 -37,72 -4,247 -16,332 -13,89 -16,235 -10,331 22,14 60,36 82,42l0 1 64 -79c5,-6 28,-27 34,-35l23 -42z"/>
   <path class="fil4" d="M11475 9368l-105 -529c-5,-24 1,-52 -3,-74 -11,-59 -56,-9 -63,-5 -3,2 -18,9 -23,12 -44,22 -55,45 -86,75 -39,39 -29,53 -57,105 -35,66 -33,35 -32,128 0,27 -3,134 1,152l1 -2c7,31 35,80 49,110l60 100c21,29 57,58 89,72 44,18 72,39 109,53 19,7 53,21 62,24 91,27 11,-163 -2,-221z"/>
   <path class="fil4" d="M12952 9427c0,-1 2,-1 0,0zm367 553c-21,189 -34,155 -221,153l-24 -34c-87,97 -59,115 -77,169 -40,123 32,401 -25,499 -30,48 -32,6 -37,52 -6,65 73,34 105,30 25,-4 47,1 72,-4 22,-4 26,-7 62,-11 75,-8 271,-45 333,-74l135 -68c48,-27 100,-42 146,-74 17,-11 28,-17 45,-31l84 -69c17,-19 19,-23 37,-39 166,-148 163,-173 240,-359 15,-35 26,-82 37,-117 22,-72 27,-57 46,-99 -25,-59 -70,-28 -128,-28 -62,0 -135,18 -143,-30 35,-22 140,-21 193,-25 151,-11 248,-40 301,-183 6,-16 7,-17 13,-37 29,-98 27,-248 -44,-332l-57 -44c-68,-42 -266,-78 -298,-126 29,-30 85,3 122,14 47,14 76,38 131,35 6,-92 -14,-199 13,-283 41,-125 -25,-418 12,-563 16,-65 9,-203 5,-276l-78 60c-15,18 -2,16 -31,36 -20,14 -20,11 -39,29 -22,21 -12,15 -42,34 -77,49 -92,61 -185,94 -14,5 -12,3 -26,7 -3,1 -5,1 -7,2 -127,36 -260,30 -385,-3 -141,-38 -123,-51 -189,-90 -60,-34 -85,-64 -87,-66l-27 -24c-85,-107 -146,-153 -179,-303 -6,-27 -7,-31 -12,-60 -12,-66 -31,-116 -15,-194 8,-36 7,-3 15,-52 13,-75 34,-141 69,-205 51,-93 148,-195 235,-248 45,-27 31,-30 87,-49 160,-56 47,-26 216,-63 62,-14 135,-2 193,6 26,3 37,0 61,6 1,1 28,12 29,12l252 121c23,20 30,59 60,69 1,-24 -4,-18 -10,-41 -2,-8 -9,-36 -10,-43 -27,-134 -34,-40 -34,-183l-14 -101c-7,-40 -21,-44 -25,-85 -4,-37 -4,-63 -13,-94 -18,-60 -1,-2 -22,-39 -14,-25 -5,-12 -11,-42 -9,-46 -49,-99 -67,-143 -30,-73 14,-28 -140,-115 -107,-60 -58,-49 -190,-97 -34,-12 -48,-16 -85,-23l-171 -41c-22,-4 -67,-14 -92,-19 -33,-8 -67,-3 -101,-10 -122,-26 -404,1 -501,31 -30,9 -50,20 -78,30 -124,41 -180,76 -292,140 -74,42 -233,175 -308,234l-116 105c-23,22 -41,27 -63,47 -59,54 -109,110 -173,150 -40,24 -63,71 -107,89 -1,1 -18,7 -19,7 -48,17 -80,-6 -104,-40 -65,-95 -48,-82 2,-191 13,-28 22,-52 35,-75l125 -196c46,-57 92,-129 150,-172 35,-26 33,-20 61,-49 51,-54 130,-91 187,-135 50,-38 180,-95 208,-114 14,-10 8,-8 20,-14l12 -5c86,-33 21,-24 76,-43 30,-11 37,-26 70,-38l36 -16c41,-24 34,-12 88,-17 12,-24 4,-13 21,-35 20,-1 33,0 52,-5 2,0 4,-1 6,-2 2,0 4,-1 6,-2l107 -37c25,-6 67,-9 89,-23l61 -36c-35,-17 -316,0 -367,9 -20,4 -64,17 -82,22 -72,20 -228,68 -286,111l-235 163c-63,37 -114,86 -166,121 -98,66 -278,224 -310,332l-35 92c-20,36 -28,35 -35,82 -8,53 -9,23 -30,73l-73 274c-2,5 -8,21 -11,31 -14,45 -18,430 -6,492 35,178 -7,402 10,586 4,43 14,26 15,84 1,79 -14,217 7,289 10,35 7,46 7,84 0,28 -2,75 2,101 14,85 25,292 46,355l14 78c12,54 19,105 32,161l136 501c1,2 1,5 2,7l55 188c6,16 8,24 13,36l13 26c0,-1 2,5 4,7l47 -82c23,-37 39,-101 84,-113l16 14c-2,22 -27,53 -42,81 -25,50 -73,104 -95,158 -36,84 -78,197 -69,286 7,69 22,146 44,200 26,65 21,30 67,60 35,23 5,17 99,30 79,11 155,-2 217,-29 25,-11 63,-26 87,-40l52 -41c3,-2 7,-3 17,-9 27,-16 48,-38 72,-54 41,-28 38,-41 83,-44 2,59 6,26 -18,49 -45,45 -143,90 -177,128 -9,11 -12,15 -18,30l202 128c86,52 302,140 409,130 9,-55 -4,-117 5,-171 9,-58 10,-91 10,-162 0,-105 31,-161 31,-228 0,-27 0,-54 -3,-81 -20,3 -39,33 -47,45 -18,26 -21,33 -58,38 -108,16 -96,-9 -105,-90l4 -2c-20,5 -42,9 -64,3 -30,-8 -12,-13 -44,-22 -30,13 -31,32 -57,50 -71,49 -66,41 -131,72 -33,16 -36,18 -62,41 -65,57 -206,116 -292,113 -70,-2 -94,-38 -120,-82 -54,-95 -13,-233 33,-326 41,-84 15,-51 84,-120l111 -100c53,-52 324,-175 418,-194 135,-28 332,-133 458,-198 3,-2 5,-3 6,-3 0,0 1,1 5,0 55,-10 83,-75 209,-111 32,-9 38,-20 67,-33 45,-20 124,-34 226,-77 70,-30 214,-35 303,-54 54,-11 263,35 296,51l140 65c45,27 135,106 151,156 16,51 10,121 -5,173 -11,37 -66,85 -119,88 -62,4 -140,0 -204,0 -143,0 -68,-18 -186,-17 -49,0 -158,-10 -197,5 -39,15 -3,16 -73,25 -35,5 -52,11 -79,25 -47,25 -67,11 -153,45 -2,37 -1,73 -1,110 0,54 -8,57 -13,102zm-904 -1370c-154,77 -64,69 -310,69 -91,0 -144,-52 -172,-64 -108,-46 -20,-7 -113,-64 -1,-1 -3,-2 -5,-3 -70,-42 -72,-78 -28,-68 26,6 113,88 215,126 28,11 65,27 88,31 147,24 63,6 142,2 96,-5 202,-64 278,-120l35 -24c75,-55 64,-62 112,-61 -6,39 -8,28 -63,68 -15,12 -11,7 -26,17l-98 63c-23,12 -31,16 -55,28zm645 378c-57,-38 -70,-49 -102,-120 -27,-61 -42,-117 -46,-177 -5,-81 -36,-156 -13,-189 57,41 13,288 134,428 25,30 65,64 120,65 79,0 45,10 78,-56 17,-35 13,-66 13,-112 -1,-393 20,-191 -46,-479 -19,-81 -63,-129 -61,-165 1,-18 1,-11 7,-21 42,29 70,133 82,177 20,72 44,134 44,208 0,67 6,316 -8,372 -21,85 -4,122 -134,106 -42,-5 -42,-20 -68,-37zm-233 -830c-80,114 -328,251 -460,263 -124,12 -246,26 -374,-20 -19,-6 -46,-19 -71,-28l-125 -61c-34,-21 -17,-27 -45,-48 -59,-44 -89,-35 -149,-138 -77,-133 -104,-110 -142,-331 -8,-48 -21,-123 -8,-186 18,-86 -1,-48 36,-150 23,-61 24,-81 62,-134 16,-22 18,-38 34,-60 76,-107 101,-109 170,-169l82 -54c76,-37 173,-77 251,-90 21,-4 11,4 33,-6l-1 -1c34,-15 143,-12 186,-6 115,17 272,63 360,139l40 28c20,17 29,34 53,49 60,38 36,23 71,72 21,29 26,21 58,77l32 52c15,27 14,52 25,87 9,25 20,38 29,62 7,19 7,54 14,80 9,30 6,-9 13,38 11,79 -8,139 -19,217 -2,14 -14,59 -19,73 -39,115 -40,81 -64,130 -20,41 -45,76 -72,115zm551 252c-19,-23 -20,-18 -22,-53l3 1c42,-3 34,-6 62,20 14,13 24,27 36,40 38,42 133,110 177,129 41,18 68,26 116,26 194,2 192,-11 321,-95 45,-30 29,-51 65,-38 42,16 0,39 -8,45l-74 54c-96,86 -232,93 -355,74 -82,-13 -260,-131 -321,-203zm-1041 -1627c-87,-23 -77,25 -92,-31l1 -1c9,-6 9,-18 55,-16 30,1 29,4 49,9 73,17 137,-19 304,70l145 108c25,16 16,3 41,28 29,29 10,19 53,49 32,23 24,7 24,47 -63,13 -32,-16 -114,-67 -34,-21 -25,-30 -63,-56 -9,-6 -12,-7 -21,-13l-88 -57c-117,-74 -198,-45 -294,-70zm931 183c-18,33 2,15 -29,26l-1 1c-36,-24 -13,-45 5,-75 150,-247 160,-254 469,-293 44,-6 11,-10 53,-13 51,-4 35,1 42,21 -16,34 1,10 -41,19 -47,10 -8,6 -46,14 -26,5 -73,8 -102,13 -125,21 -224,39 -287,172l-63 115z"/>
   <path class="fil10" d="M13049 9873c-54,18 -27,20 -61,42l-277 137c-86,41 -34,26 -88,57 -19,11 -23,14 -43,26 -35,20 -25,2 -37,29 29,24 58,3 67,0 4,-5 -4,-32 21,-3 17,21 8,63 10,91 87,23 89,-14 118,-49 1,-2 3,-4 4,-5l4 -4 38 -30c35,17 40,27 40,76 0,34 3,73 -4,105 -33,152 -14,265 -23,307 -9,38 -7,-8 -15,45 -6,44 -1,111 18,145 6,9 9,20 32,28 17,5 25,3 46,3l2 -91 59 -50c-11,-49 -10,-379 -5,-440 3,-37 7,-26 11,-53 12,-75 -13,-28 26,-82 8,-11 13,-25 18,-34 11,-20 34,-52 53,-56 43,-11 33,33 64,40l110 0c29,-12 9,15 27,-27l36 -195c6,-87 -7,-73 -16,-81 -21,-23 -32,-15 -55,-6 -16,7 -28,17 -46,24 -28,12 -37,8 -60,16 -38,14 -19,17 -74,35z"/>
   <path class="fil5" d="M12206 9951c15,-35 25,-48 25,-92 0,-64 -22,-48 -59,-34 -42,16 -82,44 -117,79l-27 24c-2,1 -7,6 -9,8 -36,39 -23,61 -9,109l1 0c18,8 61,22 84,18 31,-5 79,-54 92,-71l19 -41z"/>
   <path class="fil5" d="M12270 9871l89 45 78 -36 6 -3c52,-30 33,-26 59,-84 23,-52 35,-21 27,-107 -75,-11 -142,50 -175,61 -14,5 -9,2 -21,5 -64,13 -63,41 -62,118l-1 1z"/>
   <path class="fil5" d="M12602 9648c-3,51 3,34 13,75 167,8 110,-5 192,-82l52 -69c0,0 -14,-32 -61,-11l-6 3c-87,47 -139,54 -191,84l1 0z"/>
   <path class="fil5" d="M12947 9491l28 40c63,61 99,19 159,-13 26,-14 24,-19 41,-43 10,-13 7,-7 15,-18 23,-33 58,-156 -58,-76 -30,20 -13,5 -42,18 -27,11 -15,11 -34,25 -32,23 -9,5 -44,16 -36,11 -40,29 -66,51l1 0z"/>
   <path class="fil5" d="M13300 9327c14,107 147,93 190,50 49,-49 42,-55 40,-114 -28,-15 -15,-26 -48,-12 -37,16 -2,17 -59,22 -40,3 -39,1 -70,18l-10 6 -10 6c-1,1 -3,2 -5,3l-1 0 -27 21z"/>
   <path class="fil5" d="M13122 9774l-42 -78c-82,-2 -116,17 -158,75l-47 64c-27,36 -32,38 -28,92l2 0 176 -88c18,-8 25,-7 38,-13l59 -52z"/>
   <path class="fil5" d="M13220 9687l-43 87c53,-6 153,-44 201,-62 9,-3 16,-6 26,-9 84,-29 68,-148 -49,-119 -47,12 -10,-1 -58,30 -12,8 -4,0 -21,13 -10,8 -48,49 -56,61l0 -1z"/>
   <path class="fil5" d="M13611 9572c-18,24 -42,51 -48,81l0 1 150 -12c5,-1 19,-1 24,-2 83,-15 76,-143 -50,-121 -40,7 -55,26 -76,53z"/>
   <path class="fil5" d="M13979 9533c-53,14 -104,58 -94,103l1 0 153 2c0,-49 8,-97 -25,-107 -17,-5 -22,-2 -35,2z"/>
   <path class="fil9" d="M13488 6050c54,22 188,38 293,71 7,2 12,5 19,7 52,19 49,26 89,46 36,18 80,22 133,71 22,21 33,30 69,28 26,-1 62,-13 75,-33l1 1c1,-3 2,-9 2,-8l3 -30c-1,-23 -2,-7 -7,-37 -6,-34 1,-39 -19,-69l-35 -49c-41,-59 -149,-173 -218,-215 -120,-73 -50,-24 -116,-53 -260,-116 -62,-32 -258,-90l-25 -8c-18,-4 -17,-4 -37,-4 -39,-1 -75,-13 -85,-13l-161 0c-41,0 0,5 -43,11 -73,10 -27,-9 -127,23l-455 163 -33 17c-73,34 -168,60 -253,113l-367 250c-125,138 -90,65 -218,247 -6,8 -3,5 -10,15l-29 47c-22,38 -118,224 -115,248 2,18 8,18 18,33l27 35c70,57 166,-91 254,-173l63 -64c8,-7 7,-5 14,-12 10,-10 5,-6 12,-14 27,-34 23,-17 43,-34 26,-23 13,-26 56,-52 67,-40 115,-83 177,-128l119 -93c38,-40 28,-16 64,-38 25,-16 4,-18 58,-42 37,-17 40,-19 70,-40 34,-25 162,-78 211,-94l164 -46c143,-27 139,-16 300,-16 43,0 239,13 277,29z"/>
   <path class="fil9" d="M8331 7867c-10,-24 -67,-78 -92,-100l-98 -97c-30,-17 -47,3 -71,8 -19,4 -94,8 -170,25l-150 46c-75,37 -72,11 -196,100 -47,34 -174,145 -188,206l-4 -3c23,35 24,14 56,67l158 233c31,42 17,30 37,36 36,-55 22,-111 111,-216 32,-37 71,-80 113,-107l136 -84c71,-36 37,-8 55,-42 86,-2 69,-11 111,-13 -6,-18 -3,-7 -10,-16 -4,-4 -6,-8 -8,-10l-1 0c9,22 -9,-9 -1,-2 43,-4 67,1 109,-8l103 -23z"/>
   <path class="fil2" d="M7623 8453c-50,-25 -43,-19 -79,-80l-199 -281c-47,64 -74,167 -79,242 -3,42 -6,20 -11,53 -8,58 4,73 24,106 32,52 7,106 122,142 46,15 187,10 236,-21 -19,-41 -11,-107 -14,-161z"/>
   <path class="fil5" d="M7264 8162c26,-72 64,-159 122,-209 39,-34 24,-40 49,-61l95 -75c1,-1 4,-2 5,-3 2,-1 4,-3 5,-4 95,-72 215,-108 328,-147 31,-10 58,-8 92,-15 37,-7 48,-22 87,-24 35,-2 71,2 108,-1 -1,-50 -33,-38 -70,-79 -46,-52 -119,-89 -168,-138l-85 -76c-13,-10 -26,-21 -41,-34l-27 -24c-2,-1 -4,-3 -5,-4l-173 -158 -4 -4c-31,-28 -46,-61 -73,-79 -12,-9 -7,-4 -20,-13l-185 -170c-23,-29 -53,-45 -74,-78 -14,-21 -23,-23 -45,-40l-137 -133c-1,-2 -3,-4 -4,-5 -37,-40 -26,0 -54,-58 -14,-28 -44,-62 -72,-78 -39,-23 -33,-6 -33,-59 42,0 36,-2 59,23 19,20 18,19 38,38 34,31 47,53 82,79 72,56 134,139 209,189 45,30 84,78 120,116l87 74c57,47 102,113 161,152 57,38 103,111 162,160l89 72c38,35 76,86 118,111 48,28 89,83 126,119l1 3c46,45 34,36 88,72 0,20 -1,36 4,55 16,66 56,79 110,136l4 4c115,111 190,43 326,77 63,16 149,24 210,38l187 52c15,4 32,10 45,14l267 96c3,1 37,21 38,21 2,1 4,3 5,4l4 4 131 99c0,86 6,72 47,128 43,59 105,116 147,175l105 140c31,42 20,46 42,85l55 75 298 -214c9,-7 7,-5 15,-11 21,-16 31,-26 42,-41l-67 -50 -4 -4 -40 -35c-33,-28 -33,-37 -67,-60 -17,-11 -36,-20 -48,-29l-522 -400c-20,-12 -26,-18 -45,-32 -21,-16 -26,-25 -47,-38l-717 -528c-25,-19 -22,-12 -49,-36 -58,-53 -130,-88 -192,-139 -11,-8 -12,-11 -23,-19l-696 -516c-15,-12 -29,-22 -50,-36l-385 -283c-16,-11 -38,-24 -50,-35 -10,-8 -10,-11 -22,-20l-68 -50c-22,-14 -29,-17 -53,-32 -30,-18 -47,-38 -79,-49l-130 -72c-33,-19 -19,0 -55,-30 -42,-35 -14,-10 -59,-26 -24,-9 -62,-42 -101,-59 -107,-48 -142,-61 -276,-61 -39,0 -115,8 -143,23 -28,15 -61,14 -89,29 -21,11 -13,10 -25,17 -29,16 3,2 -31,11 -9,2 -14,3 -17,4 -46,18 -65,52 -100,91 -35,39 -21,43 -33,136 -3,28 2,58 -1,84 -7,61 -13,0 -18,60 -3,46 9,26 23,64 14,35 0,31 20,65 15,26 16,24 28,56 14,39 40,73 60,110l293 493c5,8 10,18 15,27l248 420c16,26 14,29 26,51l159 263c7,13 6,15 13,29 18,36 0,4 18,26 30,36 66,105 93,152 11,18 18,38 28,57l131 208c19,21 20,34 40,46 41,-53 14,-121 31,-183 7,-25 24,-51 33,-76z"/>
  </g>
 </g>
</svg>
